<?xml version="1.0" encoding="UTF-8"?>
<svg id="icons" xmlns="http://www.w3.org/2000/svg" version="1.1" viewBox="0 0 489.6 483.08">
  <!-- Generator: Adobe Illustrator 30.1.0, SVG Export Plug-In . SVG Version: 2.1.1 Build 136)  -->
  <defs>
    <style>
      .st0 {
        fill: #2463eb;
      }

      .st1 {
        fill: #e9effd;
      }
    </style>
  </defs>
  <rect class="st1" x="6.87" y="9.16" width="474.61" height="465.84" rx="65.23" ry="65.23"/>
  <g id="_x31_4_x2C__Workspace_x2C__studying_x2C__education_x2C__learning_x2C__desk_lamp_x2C__study">
    <g>
      <path class="st0" d="M382.06,192.48v-2.9h-180.68v2.9c0,8.89,7.23,16.12,16.12,16.12h148.44c8.89,0,16.12-7.23,16.12-16.12Z"/>
      <path class="st0" d="M270.08,218.11h42.01v9.51h-42.01v-9.51Z"/>
      <path class="st0" d="M168.22,146.81l2.02,18.16,39.8-39.8-18.15-2.02c-7.89,7.89-15.77,15.77-23.66,23.66Z"/>
      <path class="st0" d="M253.61,251.39h74.96l-13.74-14.26h-47.48l-13.74,14.26Z"/>
      <path class="st0" d="M156.51,131.61l20.17-20.17,6.72,6.72-20.17,20.17-6.72-6.72Z"/>
      <path class="st0" d="M109.84,214.97c.48.67-.34-.28,17.3,17.4h13.45l-20.5-20.5c5.67-4.77,6.47-13.09,1.91-18.83l38.18-38.19-6.72-6.72-39.93,39.94c-8.47-1.36-15.76,5.23-15.76,13.4,0,6.98,5.29,12.75,12.08,13.5h0Z"/>
      <path class="st0" d="M223.76,124.89l-22.38,22.38v32.8h180.68v-69.07c0-8.89-7.23-16.12-16.12-16.12h-148.44c-8.89,0-16.12,7.23-16.12,16.12v3.62l19.54,2.17c3.95.44,5.65,5.27,2.84,8.09h0ZM320.25,113.51h19.02c2.63,0,4.75,2.13,4.75,4.75s-2.13,4.75-4.75,4.75h-19.02c-2.63,0-4.75-2.13-4.75-4.75s2.13-4.75,4.75-4.75ZM277.46,132.53h61.81c2.63,0,4.75,2.13,4.75,4.75s-2.13,4.75-4.75,4.75h-61.81c-2.63,0-4.75-2.13-4.75-4.75s2.13-4.75,4.75-4.75ZM277.46,151.54h61.81c2.63,0,4.75,2.13,4.75,4.75s-2.13,4.75-4.75,4.75h-61.81c-2.63,0-4.75-2.13-4.75-4.75s2.13-4.75,4.75-4.75Z"/>
      <path class="st0" d="M126.96,241.88c-3.53,0-6.4,2.87-6.4,6.4v3.11h38.04v-3.11c0-3.53-2.87-6.4-6.4-6.4h-25.23Z"/>
      <path class="st0" d="M92.03,260.9v19.02h304.3v-19.02H92.03Z"/>
      <path class="st0" d="M367.8,389.28h14.26v-99.85h-14.26v99.85Z"/>
      <path class="st0" d="M253.68,327.47h104.6v-38.04h-104.6v38.04ZM301.23,303.69h9.51c2.63,0,4.75,2.13,4.75,4.75s-2.13,4.75-4.75,4.75h-9.51c-2.63,0-4.75-2.13-4.75-4.75s2.13-4.75,4.75-4.75Z"/>
      <path class="st0" d="M106.29,289.43h14.26v99.85h-14.26v-99.85Z"/>
      <path class="st0" d="M253.68,375.01h104.6v-38.04h-104.6v38.04ZM301.23,351.24h9.51c2.63,0,4.75,2.13,4.75,4.75s-2.13,4.75-4.75,4.75h-9.51c-2.63,0-4.75-2.13-4.75-4.75s2.13-4.75,4.75-4.75Z"/>
    </g>
  </g>
</svg>