<?xml version="1.0" encoding="UTF-8"?>
<svg id="icons" xmlns="http://www.w3.org/2000/svg" version="1.1" viewBox="0 0 489.6 483.08">
  <!-- Generator: Adobe Illustrator 30.1.0, SVG Export Plug-In . SVG Version: 2.1.1 Build 136)  -->
  <defs>
    <style>
      .st0 {
        fill: #2463eb;
      }

      .st1 {
        fill: none;
        stroke: #2463eb;
        stroke-miterlimit: 10;
        stroke-width: 6px;
      }

      .st2 {
        fill: #e9effd;
      }
    </style>
  </defs>
  <rect class="st2" x="6.87" y="9.16" width="474.61" height="465.84" rx="65.23" ry="65.23"/>
  <g>
    <path class="st0" d="M162.07,294.71c-.58-2.43-3.02-3.94-5.45-3.36-7.49,2.44-.61,13.04,1.34,17.37,12.16,21.06,39.09,28.28,60.15,16.11,21.06-12.16,28.28-39.09,16.11-60.15-12.16-21.06-39.09-28.28-60.15-16.11-6.69,3.86-12.24,9.41-16.11,16.1-1.97,4.33-8.81,14.94-1.35,17.38,5.53,1.16,5.6-5.24,7.21-8.75l13.41,7.74c-1.2,3.68-1.2,7.65,0,11.33l-13.41,7.74c-.73-1.75-1.32-3.56-1.76-5.4ZM185.37,286.71c.07-5.93,4.93-10.69,10.86-10.62,5.84.06,10.56,4.78,10.62,10.62-.07,5.93-4.93,10.69-10.86,10.62-5.84-.06-10.56-4.78-10.62-10.62ZM228.43,273.28c3.54,8.6,3.54,18.25,0,26.85l-13.43-7.76c1.2-3.68,1.2-7.65,0-11.33l13.44-7.76ZM200.64,321.37v-15.44c3.77-.89,7.2-2.87,9.85-5.7l13.39,7.73c-5.66,7.37-14.02,12.2-23.23,13.4ZM223.88,265.44l-13.39,7.73c-2.65-2.83-6.08-4.81-9.85-5.7v-15.44c9.22,1.21,17.58,6.04,23.24,13.41h0ZM168.33,265.44c5.67-7.36,14.03-12.18,23.25-13.41v15.44c-3.77.89-7.2,2.87-9.85,5.7l-13.4-7.74ZM191.58,305.94v15.43c-9.21-1.22-17.57-6.04-23.24-13.4l13.39-7.73c2.65,2.82,6.08,4.81,9.85,5.7h0Z"/>
    <path class="st0" d="M231.07,170.98c2.5,0,4.53-2.03,4.53-4.53h0v-46.68c0-2.5-2.03-4.53-4.53-4.53s-4.53,2.03-4.53,4.53v46.68c0,2.5,2.03,4.53,4.53,4.53h0Z"/>
    <path class="st0" d="M276.55,156.46h-5.27v-36.69c-.04-2.5-2.1-4.5-4.6-4.46-2.45.04-4.42,2.01-4.46,4.46v46.68c.05,2.52,2.14,4.53,4.66,4.48s4.53-2.14,4.48-4.66c0-.25-.03-.5-.08-.74h5.27c8.04,0,14.56,6.53,14.57,14.57v42.04c.4,3.2-4.18,7.87-5.64,10.39-6.36-2.58-13.66-.61-17.84,4.84l-3.03,3.93c-1.76-2.65-3.67-5.19-5.72-7.62,5.67-10.49,13-22.94,12.37-35.31v-13.21h7.24c2.5,0,4.53-2.03,4.53-4.53s-2.03-4.53-4.53-4.53h-59.84c-2.5.04-4.5,2.09-4.47,4.59.03,2.45,2.01,4.43,4.47,4.47h7.83c-.22,8.12-2.82,16.01-7.5,22.66-51.33-15.84-105.95,25.13-105.11,78.9,0,45.42,36.83,82.23,82.25,82.22,31.72,0,60.6-18.25,74.24-46.89,1.04-2.28.03-4.97-2.25-6-2.22-1.01-4.84-.08-5.93,2.1-12.21,25.43-37.88,41.64-66.08,41.73-97.04-4.01-97.05-142.31,0-146.32,45.15-.82,81.43,43.47,71.72,87.49-.48,2.46,1.13,4.83,3.58,5.31,2.4.47,4.74-1.06,5.28-3.45,1.77-8.56,2.1-17.35.98-26.01l14.78-21.47c3.54-5.18,3.57-11.99.08-17.2,3.06-4.54,8.09-10.2,7.63-16.1v-42.04c-.01-13.05-10.59-23.62-23.63-23.63ZM227.76,210.83c4.97-7.66,7.67-16.56,7.8-25.69h26.65v13.21c.5,9.96-5.33,19.93-9.9,28.37-7.17-6.72-15.49-12.1-24.56-15.9ZM285.01,250.28l-9.8,14.23c-1.37-5.1-3.28-10.03-5.7-14.71,2.82-3.15,5.66-9.27,9.72-9.36,3.49-.28,6.55,2.31,6.83,5.8.12,1.43-.25,2.85-1.05,4.04Z"/>
    <g>
      <path class="st1" d="M358.13,144.56l.03,17.73c.04,6.46-5.26,11.73-11.72,11.77-6.46.04-11.73-5.26-11.77-11.72l-.05-18.8c-8.82,4.34-14.84,13.4-14.79,23.88,0,14.68,11.94,26.57,26.62,26.56,14.68,0,26.57-11.94,26.56-26.62-.05-10.48-6.09-19.56-14.9-23.87l.02,1.07Z"/>
      <path class="st1" d="M358.49,360.53l-.05-18.8c-.04-6.46-5.29-11.71-11.77-11.72-6.46.04-11.71,5.29-11.72,11.77l.05,18.8c-8.81-4.31-14.9-13.38-14.89-23.82,0-14.68,11.89-26.61,26.56-26.62,14.68,0,26.61,11.89,26.62,26.56.04,10.43-5.99,19.49-14.81,23.83h0Z"/>
      <path class="st1" d="M346.71,310.07c4.57-.02,8.83,1.13,12.58,3.15l-.2-122.41c-3.72,2.04-8.05,3.21-12.63,3.23-4.57.02-8.88-1.11-12.63-3.14l.22,122.47c3.76-2.11,8.09-3.28,12.66-3.29h0Z"/>
    </g>
  </g>
</svg>