<?xml version="1.0" encoding="UTF-8"?>
<svg id="icons" xmlns="http://www.w3.org/2000/svg" version="1.1" viewBox="0 0 489.6 483.08">
  <!-- Generator: Adobe Illustrator 30.1.0, SVG Export Plug-In . SVG Version: 2.1.1 Build 136)  -->
  <defs>
    <style>
      .st0 {
        fill: #2463eb;
      }

      .st1 {
        fill: #e9effd;
      }
    </style>
  </defs>
  <rect class="st1" x="6.87" y="9.16" width="474.61" height="465.84" rx="65.23" ry="65.23"/>
  <g id="_x31_9_x2C__Computer_table_x2C__PC_x2C__Cpu_x2C__Screen_x2C__Table_x2C__work_table">
    <g>
      <path class="st0" d="M360.91,279.39H127.44c-5.55,0-10.07-4.52-10.07-10.07v-9.72c0-5.55,4.52-10.07,10.07-10.07h233.47c5.55,0,10.07,4.52,10.07,10.07v9.72c0,5.55-4.52,10.07-10.07,10.07ZM127.44,257c-1.44,0-2.61,1.17-2.61,2.61v9.72c0,1.44,1.17,2.61,2.61,2.61h233.47c1.44,0,2.61-1.17,2.61-2.61v-9.72c0-1.44-1.17-2.61-2.61-2.61H127.44Z"/>
      <path class="st0" d="M247.59,223.43h-114.39c-8.73,0-15.83-7.1-15.83-15.83v-76.5c0-8.73,7.1-15.83,15.83-15.83h114.39c8.73,0,15.83,7.1,15.83,15.83v76.5c0,8.73-7.1,15.83-15.83,15.83h0ZM133.2,122.74c-4.62,0-8.37,3.75-8.37,8.37v76.5c0,4.62,3.75,8.37,8.37,8.37h114.39c4.62,0,8.37-3.75,8.37-8.37v-76.5c0-4.62-3.76-8.37-8.37-8.37h-114.39Z"/>
      <path class="st0" d="M237.79,207.26h-94.79c-5.58,0-10.11-4.54-10.11-10.11v-55.58c0-5.58,4.54-10.11,10.11-10.11h94.79c5.58,0,10.11,4.54,10.11,10.11v55.58c0,5.58-4.54,10.11-10.11,10.11h0ZM143,138.91c-1.46,0-2.65,1.19-2.65,2.65v55.58c0,1.46,1.19,2.65,2.65,2.65h94.79c1.46,0,2.65-1.19,2.65-2.65v-55.58c0-1.46-1.19-2.65-2.65-2.65h-94.79Z"/>
      <path class="st0" d="M199.06,238.35h-17.32c-2.06,0-3.73-1.67-3.73-3.73v-14.92c0-2.06,1.67-3.73,3.73-3.73h17.32c2.06,0,3.73,1.67,3.73,3.73v14.92c0,2.06-1.67,3.73-3.73,3.73ZM185.47,230.89h9.87v-7.46h-9.87v7.46Z"/>
      <path class="st0" d="M212.05,257h-43.31c-2.06,0-3.73-1.67-3.73-3.73v-9.97c0-6.84,5.57-12.41,12.41-12.41h25.95c6.84,0,12.41,5.57,12.41,12.41v9.97c0,2.06-1.67,3.73-3.73,3.73h0ZM172.47,249.54h35.85v-6.24c0-2.73-2.22-4.95-4.95-4.95h-25.95c-2.73,0-4.95,2.22-4.95,4.95v6.24h0Z"/>
      <path class="st0" d="M343.81,257h-53.82c-8.81,0-15.98-7.17-15.98-15.98v-109.77c0-8.81,7.17-15.98,15.98-15.98h53.82c8.81,0,15.98,7.17,15.98,15.98v109.77c0,8.81-7.17,15.98-15.98,15.98ZM289.99,122.74c-4.7,0-8.52,3.82-8.52,8.52v109.77c0,4.7,3.82,8.52,8.52,8.52h53.82c4.7,0,8.52-3.82,8.52-8.52v-109.77c0-4.7-3.82-8.52-8.52-8.52h-53.82Z"/>
      <path class="st0" d="M307.33,152.57h-11.93c-3.56,0-6.46-2.9-6.46-6.46v-9.45c0-3.56,2.9-6.46,6.46-6.46h11.93c3.56,0,6.46,2.9,6.46,6.46v9.45c0,3.56-2.9,6.46-6.46,6.46ZM296.39,145.11h9.95v-7.46h-9.95v7.46Z"/>
      <path class="st0" d="M338.41,152.57h-11.93c-3.56,0-6.46-2.9-6.46-6.46v-9.45c0-3.56,2.9-6.46,6.46-6.46h11.93c3.56,0,6.46,2.9,6.46,6.46v9.45c0,3.56-2.9,6.46-6.46,6.46ZM327.47,145.11h9.95v-7.46h-9.95v7.46Z"/>
      <path class="st0" d="M316.9,219.7c-7.2,0-13.05-5.86-13.05-13.05s5.86-13.05,13.05-13.05,13.05,5.86,13.05,13.05-5.86,13.05-13.05,13.05ZM316.9,201.06c-3.08,0-5.59,2.51-5.59,5.59s2.51,5.59,5.59,5.59,5.59-2.51,5.59-5.59-2.51-5.59-5.59-5.59Z"/>
      <path class="st0" d="M162.29,368.88h-11.52c-6.08,0-11.02-4.94-11.02-11.02v-82.19c0-2.06,1.67-3.73,3.73-3.73h26.11c2.06,0,3.73,1.67,3.73,3.73v82.19c0,6.08-4.94,11.02-11.02,11.02ZM147.21,279.39v78.46c0,1.97,1.6,3.56,3.56,3.56h11.52c1.97,0,3.56-1.6,3.56-3.56v-78.46h-18.65Z"/>
      <path class="st0" d="M337.58,368.88h-11.52c-6.08,0-11.02-4.94-11.02-11.02v-82.19c0-2.06,1.67-3.73,3.73-3.73h26.11c2.06,0,3.73,1.67,3.73,3.73v82.19c0,6.08-4.94,11.02-11.02,11.02ZM322.49,279.39v78.46c0,1.97,1.6,3.56,3.56,3.56h11.52c1.97,0,3.56-1.6,3.56-3.56v-78.46h-18.65Z"/>
      <path class="st0" d="M318.76,309.21h-63.4c-2.06,0-3.73-1.67-3.73-3.73v-29.84c0-2.06,1.67-3.73,3.73-3.73h63.4c2.06,0,3.73,1.67,3.73,3.73v29.84c0,2.06-1.67,3.73-3.73,3.73ZM259.09,301.75h55.94v-22.38h-55.94v22.38Z"/>
      <path class="st0" d="M318.76,339.05h-53.95c-7.27,0-13.18-5.91-13.18-13.18v-20.39c0-2.06,1.67-3.73,3.73-3.73h63.4c2.06,0,3.73,1.67,3.73,3.73v29.84c0,2.06-1.67,3.73-3.73,3.73ZM259.09,309.21v16.66c0,3.15,2.57,5.72,5.72,5.72h50.22v-22.38h-55.94Z"/>
      <path class="st0" d="M303.85,294.29h-33.57c-2.06,0-3.73-1.67-3.73-3.73s1.67-3.73,3.73-3.73h33.57c2.06,0,3.73,1.67,3.73,3.73s-1.67,3.73-3.73,3.73Z"/>
      <path class="st0" d="M303.85,324.13h-33.57c-2.06,0-3.73-1.67-3.73-3.73s1.67-3.73,3.73-3.73h33.57c2.06,0,3.73,1.67,3.73,3.73s-1.67,3.73-3.73,3.73Z"/>
      <path class="st0" d="M333.68,182.41h-33.57c-6.17,0-11.19-5.02-11.19-11.19s5.02-11.19,11.19-11.19h33.57c6.17,0,11.19,5.02,11.19,11.19s-5.02,11.19-11.19,11.19ZM300.12,167.49c-2.06,0-3.73,1.67-3.73,3.73s1.67,3.73,3.73,3.73h33.57c2.06,0,3.73-1.67,3.73-3.73s-1.67-3.73-3.73-3.73h-33.57Z"/>
      <path class="st0" d="M356.06,238.35h-78.32c-2.06,0-3.73-1.67-3.73-3.73s1.67-3.73,3.73-3.73h78.32c2.06,0,3.73,1.67,3.73,3.73s-1.67,3.73-3.73,3.73Z"/>
    </g>
  </g>
</svg>