<?xml version="1.0" encoding="UTF-8"?>
<svg id="icons" xmlns="http://www.w3.org/2000/svg" version="1.1" viewBox="0 0 489.6 483.08">
  <!-- Generator: Adobe Illustrator 30.1.0, SVG Export Plug-In . SVG Version: 2.1.1 Build 136)  -->
  <defs>
    <style>
      .st0 {
        fill: #2463eb;
      }

      .st1 {
        fill: #e9effd;
      }
    </style>
  </defs>
  <rect class="st1" x="6.87" y="9.16" width="474.61" height="465.84" rx="65.23" ry="65.23"/>
  <g>
    <path class="st0" d="M244.17,234.71c-30.44,0-55.25,24.77-55.25,55.25s24.69,55.25,55.25,55.25,55.25-24.86,55.25-55.25-24.92-55.25-55.25-55.25ZM283.64,289.96c0,4.37-.72,8.56-2.04,12.49l-14.15-8.17c.26-1.4.4-2.85.4-4.32s-.14-2.92-.4-4.32l14.15-8.17c1.32,3.93,2.04,8.13,2.04,12.49ZM204.71,289.96c0-4.37.72-8.56,2.04-12.49l14.15,8.17c-.26,1.4-.4,2.85-.4,4.32s.14,2.92.4,4.32l-14.15,8.17c-1.32-3.93-2.04-8.13-2.04-12.49ZM244.17,297.85c-4.35,0-7.89-3.54-7.89-7.89s3.54-7.89,7.89-7.89,7.89,3.54,7.89,7.89-3.54,7.89-7.89,7.89ZM273.69,263.81l-14.14,8.17c-2.19-1.87-4.72-3.35-7.48-4.33v-16.35c8.53,1.74,16.05,6.24,21.62,12.51ZM236.28,251.29v16.35c-2.76.98-5.29,2.46-7.48,4.33l-14.14-8.17c5.57-6.28,13.1-10.78,21.62-12.52ZM214.66,316.12l14.14-8.17c2.19,1.87,4.72,3.35,7.48,4.33v16.35c-8.53-1.74-16.05-6.24-21.62-12.51ZM252.07,328.63v-16.35c2.76-.98,5.29-2.46,7.48-4.33l14.14,8.17c-5.57,6.28-13.1,10.78-21.62,12.52Z"/>
    <path class="st0" d="M157.36,289.96c0,47.87,38.95,86.82,86.82,86.82s86.82-38.95,86.82-86.82c0-39.67-26.74-73.2-63.14-83.54v-51.69h23.68c4.36,0,7.89-3.53,7.89-7.89,0-21.76-17.7-39.46-39.46-39.46h-31.57c-13.06,0-23.68,10.62-23.68,23.68v15.79c0,4.36,3.53,7.89,7.89,7.89h7.89v51.69c-36.4,10.33-63.14,43.87-63.14,83.54ZM315.21,289.96c0,39.17-31.87,71.03-71.03,71.03s-71.03-31.87-71.03-71.03,31.87-71.03,71.03-71.03,71.03,31.87,71.03,71.03ZM220.5,131.06c0-4.35,3.54-7.89,7.89-7.89h31.57c10.29,0,19.07,6.6,22.33,15.79h-61.79v-7.89ZM236.28,154.73h15.79v48.77c-2.6-.23-5.23-.36-7.89-.36s-5.29.13-7.89.36v-48.77Z"/>
  </g>
</svg>