<?xml version="1.0" encoding="UTF-8"?>
<svg id="icons" xmlns="http://www.w3.org/2000/svg" version="1.1" viewBox="0 0 489.6 483.08">
  <!-- Generator: Adobe Illustrator 30.1.0, SVG Export Plug-In . SVG Version: 2.1.1 Build 136)  -->
  <defs>
    <style>
      .st0 {
        fill: #2463eb;
      }

      .st1 {
        fill: #e9effd;
      }
    </style>
  </defs>
  <rect class="st1" x="6.87" y="9.16" width="474.61" height="465.84" rx="65.23" ry="65.23"/>
  <g>
    <path class="st0" d="M270.35,326.24c0-6.86-5.58-12.45-12.45-12.45h-27.46c-6.86,0-12.45,5.58-12.45,12.45s5.58,12.45,12.45,12.45h27.46c6.86,0,12.45-5.58,12.45-12.45ZM257.9,329.78h-27.46c-1.95,0-3.54-1.59-3.54-3.54s1.59-3.54,3.54-3.54h27.46c1.95,0,3.54,1.59,3.54,3.54s-1.59,3.54-3.54,3.54Z"/>
    <path class="st0" d="M388.83,350.57h-5.38v-102.97c0-4.1-3.33-7.43-7.43-7.43h-9.89v-37.89c0-2.46-1.99-4.46-4.46-4.46s-4.46,1.99-4.46,4.46v37.89h-10.34v-81.53h10.34v22.85c0,2.46,1.99,4.46,4.46,4.46s4.46-1.99,4.46-4.46v-22.85h2.32c2.46,0,4.46,2,4.46,4.46v38.77c0,2.46,1.99,4.46,4.46,4.46s4.46-1.99,4.46-4.46v-38.77c0-7.37-6-13.37-13.37-13.37h-2.32v-5.52c0-7.77-6.32-14.08-14.08-14.08s-14.08,6.32-14.08,14.08v95.96h-13.58v-30.89c4.07-.02,7.38-3.34,7.38-7.42v-43.48c0-4.1-3.33-7.43-7.43-7.43h-17.49c-4.1,0-7.43,3.33-7.43,7.43v81.79h-9.89c-4.1,0-7.43,3.33-7.43,7.43v45.41h-14.55v-42.89c0-11.5-9.35-20.85-20.85-20.85h-5.08c-11.5,0-20.85,9.35-20.85,20.85v42.89h-14.55v-7.55c0-2.46-1.99-4.46-4.46-4.46s-4.46,1.99-4.46,4.46v65.12h-83.52v-101.49h83.52v15.58c0,2.46,1.99,4.46,4.46,4.46s4.46-1.99,4.46-4.46v-17.06c0-4.1-3.33-7.43-7.43-7.43h-8.3v-126.68c0-4.1-3.33-7.43-7.43-7.43h-35.65c-4.1,0-7.43,3.33-7.43,7.43v33.17c-.91-.51-1.96-.79-3.06-.79-2.62,0-4.91,1.58-5.84,4.04l-10.21,27.04c-.19.5-.29,1.04-.29,1.57v61.66h-8.3c-4.1,0-7.43,3.33-7.43,7.43v102.98h-5.38c-4.1,0-7.43,3.33-7.43,7.43v12.67c0,4.1,3.33,7.43,7.43,7.43h289.32c4.1,0,7.43-3.33,7.43-7.43v-12.67c0-4.1-3.33-7.43-7.43-7.43h0ZM346.88,144.2c0-2.85,2.32-5.17,5.17-5.17s5.17,2.32,5.17,5.17v5.52h-10.34v-5.52ZM148.92,114.98h32.67v14.26h-10.4c-2.46,0-4.46,1.99-4.46,4.46s1.99,4.46,4.46,4.46h10.4v9.15h-10.4c-2.46,0-4.46,1.99-4.46,4.46s1.99,4.46,4.46,4.46h10.4v9.15h-10.4c-2.46,0-4.46,1.99-4.46,4.46s1.99,4.46,4.46,4.46h10.4v9.15h-10.4c-2.46,0-4.46,1.99-4.46,4.46s1.99,4.46,4.46,4.46h10.4v9.15h-10.4c-2.46,0-4.46,1.99-4.46,4.46s1.99,4.46,4.46,4.46h10.4v9.15h-10.4c-2.46,0-4.46,1.99-4.46,4.46s1.99,4.46,4.46,4.46h10.4v11.72h-28.32v-61.66c0-.54-.1-1.07-.29-1.57l-4.07-10.78v-51.18ZM136.95,159.67l5.43,14.38h-10.86l5.43-14.38ZM129.53,182.97h14.84v57.2h-14.84v-57.2ZM308.35,159.86h14.52v40.51h-14.52v-40.51ZM308.35,209.28h7.14v30.88h-7.14v-30.88ZM291.03,249.08h83.52v101.49h-83.52v-101.49ZM229.7,250.11c0-6.58,5.36-11.94,11.94-11.94h5.08c6.58,0,11.94,5.36,11.94,11.94v4.82h-28.96v-4.82h0ZM229.7,263.84h28.96v29.16h-28.96v-29.16ZM387.35,369.18H101v-9.7h146.14c2.46,0,4.46-1.99,4.46-4.46s-1.99-4.46-4.46-4.46h-40.91v-48.66h75.88v48.66h-14.18c-2.46,0-4.46,1.99-4.46,4.46s1.99,4.46,4.46,4.46h119.41v9.7Z"/>
  </g>
</svg>