<?xml version="1.0" encoding="UTF-8"?>
<svg id="icons" xmlns="http://www.w3.org/2000/svg" version="1.1" viewBox="0 0 489.6 483.08">
  <!-- Generator: Adobe Illustrator 30.1.0, SVG Export Plug-In . SVG Version: 2.1.1 Build 136)  -->
  <defs>
    <style>
      .st0 {
        fill: none;
        stroke: #2463eb;
        stroke-linecap: round;
        stroke-linejoin: round;
        stroke-width: 5px;
      }

      .st1 {
        fill: #e9effd;
      }
    </style>
  </defs>
  <rect class="st1" x="6.87" y="9.16" width="474.61" height="465.84" rx="65.23" ry="65.23"/>
  <g>
    <path id="path2622" class="st0" d="M222.56,105.54c0,13.54-10.97,24.51-24.51,24.51s-24.51-10.97-24.51-24.51,10.97-24.51,24.51-24.51,24.51,10.97,24.51,24.51Z"/>
    <path id="path2626" class="st0" d="M206.24,105.54c0,4.52-3.66,8.19-8.19,8.19s-8.19-3.66-8.19-8.19,3.66-8.19,8.19-8.19,8.19,3.66,8.19,8.19Z"/>
    <path id="path2628" class="st0" d="M214.62,180.19h-33.14v-33.94h33.14v33.94Z"/>
    <path id="path2632" class="st0" d="M222.56,378.61c0-13.54-10.97-24.51-24.51-24.51s-24.51,10.97-24.51,24.51,10.97,24.51,24.51,24.51,24.51-10.97,24.51-24.51Z"/>
    <path id="path2636" class="st0" d="M206.24,378.61c0-4.52-3.66-8.19-8.19-8.19s-8.19,3.66-8.19,8.19,3.66,8.19,8.19,8.19,8.19-3.66,8.19-8.19Z"/>
    <path id="path2638" class="st0" d="M210.76,319.22h-25.41v18.69h25.41v-18.69Z"/>
    <path id="path2640" class="st0" d="M216.07,180.19h-36.04v24.7h36.04v-24.7Z"/>
    <path id="path2642" class="st0" d="M224.39,221.55h-52.67v-16.66h52.67v16.66Z"/>
    <path id="path2644" class="st0" d="M224.39,319.22h-52.67v-16.66h52.67v16.66Z"/>
    <path id="path2646" class="st0" d="M207.75,302.56h-19.4v-81.01h19.4v81.01Z"/>
    <path id="path2650" class="st0" d="M218.84,237.75h-41.58"/>
    <path id="path2654" class="st0" d="M218.84,253.95h-41.58"/>
    <path id="path2658" class="st0" d="M218.84,270.15h-41.58"/>
    <path id="path2662" class="st0" d="M218.84,286.35h-41.58"/>
    <path id="path2666" class="st0" d="M265.79,378.61c0-13.54,10.97-24.51,24.51-24.51s24.51,10.97,24.51,24.51-10.97,24.51-24.51,24.51-24.51-10.97-24.51-24.51Z"/>
    <path id="path2670" class="st0" d="M282.11,378.61c0-4.52,3.66-8.19,8.19-8.19s8.19,3.66,8.19,8.19-3.66,8.19-8.19,8.19-8.19-3.66-8.19-8.19Z"/>
    <path id="path2672" class="st0" d="M273.73,303.97h33.14v33.94h-33.14v-33.94Z"/>
    <path id="path2676" class="st0" d="M265.79,105.54c0,13.54,10.97,24.51,24.51,24.51s24.51-10.97,24.51-24.51-10.97-24.51-24.51-24.51-24.51,10.97-24.51,24.51Z"/>
    <path id="path2680" class="st0" d="M282.11,105.54c0,4.52,3.66,8.19,8.19,8.19s8.19-3.66,8.19-8.19-3.66-8.19-8.19-8.19-8.19,3.66-8.19,8.19Z"/>
    <path id="path2682" class="st0" d="M277.59,164.94h25.41v-18.69h-25.41v18.69Z"/>
    <path id="path2686" class="st0" d="M272.28,279.27v24.7h36.04v-24.7"/>
    <path id="path2690" class="st0" d="M279.6,279.27h-15.63v-16.66h52.67v16.66h-14.35"/>
    <path id="path2692" class="st0" d="M263.96,164.94h52.67v16.66h-52.67v-16.66Z"/>
    <path id="path2694" class="st0" d="M280.6,181.6h19.4v81.01h-19.4v-81.01Z"/>
    <path id="path2698" class="st0" d="M269.51,246.41h41.58"/>
    <path id="path2702" class="st0" d="M269.51,230.21h41.58"/>
    <path id="path2706" class="st0" d="M269.51,214h41.58"/>
    <path id="path2710" class="st0" d="M269.51,197.8h41.58"/>
    <path id="path2722" class="st0" d="M189.87,337.9v17.6"/>
    <path id="path2726" class="st0" d="M206.24,355.51v-17.6"/>
    <path id="path2730" class="st0" d="M189.87,146.25v-17.6"/>
    <path id="path2734" class="st0" d="M206.24,128.65v17.6"/>
    <path id="path2738" class="st0" d="M298.48,146.25v-17.6"/>
    <path id="path2742" class="st0" d="M282.11,128.65v17.6"/>
    <path id="path2746" class="st0" d="M298.48,337.9v17.6"/>
    <path id="path2750" class="st0" d="M282.11,355.51v-17.6"/>
  </g>
</svg>