<?xml version="1.0" encoding="UTF-8"?>
<svg id="icons" xmlns="http://www.w3.org/2000/svg" version="1.1" viewBox="0 0 489.6 483.08">
  <!-- Generator: Adobe Illustrator 30.1.0, SVG Export Plug-In . SVG Version: 2.1.1 Build 136)  -->
  <defs>
    <style>
      .st0 {
        fill: none;
        stroke: #2463eb;
        stroke-linecap: round;
        stroke-linejoin: round;
        stroke-width: 9px;
      }

      .st1 {
        fill: #e9effd;
      }
    </style>
  </defs>
  <rect class="st1" x="6.87" y="9.16" width="474.61" height="465.84" rx="65.23" ry="65.23"/>
  <g>
    <path class="st0" d="M138.4,161.06v38.85c0,2.09,1.69,3.78,3.78,3.78h121.5c2.09,0,3.78-1.69,3.78-3.78v-38.85c0-2.09-1.69-3.78-3.78-3.78h-121.5c-2.09,0-3.78,1.69-3.78,3.78Z"/>
    <line class="st0" x1="199.53" y1="174.81" x2="206.34" y2="174.81"/>
    <path class="st0" d="M267.47,263.16v2.24c0,2.09-1.69,3.78-3.78,3.78h-121.5c-2.09,0-3.78-1.69-3.78-3.78v-38.86c0-2.09,1.7-3.78,3.78-3.78h121.5c2.09,0,3.78,1.7,3.78,3.78v2.2"/>
    <line class="st0" x1="199.53" y1="240.29" x2="206.34" y2="240.29"/>
    <path class="st0" d="M138.4,292.02v38.85c0,2.09,1.69,3.78,3.78,3.78h121.5c2.09,0,3.78-1.69,3.78-3.78v-38.85c0-2.09-1.69-3.78-3.78-3.78h-121.5c-2.09,0-3.78,1.69-3.78,3.78Z"/>
    <line class="st0" x1="199.53" y1="305.77" x2="206.34" y2="305.77"/>
    <path class="st0" d="M287.62,256.15v109.05c0,3.35-2.71,6.06-6.06,6.06h-14.86c-2.91,0-5.41-2.07-5.95-4.93l-1.26-6.59c-.55-2.86-3.04-4.93-5.95-4.93h-101.18c-2.91,0-5.41,2.07-5.95,4.93l-1.26,6.59c-.55,2.86-3.04,4.93-5.95,4.93h-14.86c-3.35,0-6.06-2.72-6.06-6.06v-33.27"/>
    <polyline class="st0" points="118.25 310.7 118.25 137.12 287.62 137.12 287.62 221.04"/>
    <path class="st0" d="M247.36,112.9H108.56c-3.35,0-6.06,2.71-6.06,6.06v12.1c0,3.35,2.71,6.06,6.06,6.06h188.75c3.35,0,6.06-2.71,6.06-6.06v-12.1c0-3.35-2.71-6.06-6.06-6.06h-28.73"/>
    <path class="st0" d="M324.44,209.32l-27.43,27.43c-.73.73-1.21,1.67-1.38,2.69l-1.9,11.74c-.28,1.72-1.46,3.17-3.09,3.8l-20.57,7.93c-1.82.7-3.87.26-5.25-1.12l-5.41-5.41c-1.38-1.38-1.81-3.43-1.11-5.25l7.93-20.57c.63-1.63,2.07-2.81,3.8-3.09l11.74-1.9c1.02-.16,1.96-.64,2.69-1.38l27.42-27.43"/>
    <path class="st0" d="M339.99,199.25l5.39-5.39c1.49-1.5,3.5-2.37,5.61-2.45l6.26-.24c2.11-.08,4.12-.95,5.61-2.45l36.79-36.79c5.6-5.59,5.6-14.66,0-20.25l-10.13-10.14c-5.59-5.59-14.66-5.59-20.25,0l-36.8,36.79c-1.49,1.5-2.37,3.5-2.45,5.61l-.24,6.26c-.08,2.12-.95,4.12-2.45,5.61l-5.38,5.39"/>
    <path class="st0" d="M335.76,214.87l7.05-7.05c1.59-1.59,1.59-4.17,0-5.76l-23.66-23.66c-1.59-1.59-4.17-1.59-5.76,0l-7.05,7.05c-1.59,1.59-1.59,4.17,0,5.76l23.66,23.66c1.59,1.59,4.17,1.59,5.76,0Z"/>
    <path class="st0" d="M365.88,124.94v21.1c0,5.13,4.16,9.28,9.28,9.28h21.1"/>
  </g>
</svg>