<?xml version="1.0" encoding="UTF-8"?>
<svg id="icons" xmlns="http://www.w3.org/2000/svg" version="1.1" viewBox="0 0 489.6 483.08">
  <!-- Generator: Adobe Illustrator 30.1.0, SVG Export Plug-In . SVG Version: 2.1.1 Build 136)  -->
  <defs>
    <style>
      .st0 {
        fill: #2463eb;
      }

      .st1 {
        fill: #e9effd;
      }
    </style>
  </defs>
  <rect class="st1" x="6.87" y="9.16" width="474.61" height="465.84" rx="65.23" ry="65.23"/>
  <g>
    <path class="st0" d="M179.21,189c0,4.54,3.69,8.22,8.22,8.21,4.54,0,8.22-3.69,8.21-8.22,0-4.54-3.69-8.22-8.22-8.21-4.54,0-8.21,3.68-8.21,8.21,0,0,0,0,0,.01Z"/>
    <path class="st0" d="M254.8,102.77H120.05c-2.86,0-5.19,2.32-5.19,5.19v268.24c0,2.86,2.32,5.19,5.19,5.19h134.75c2.86,0,5.19-2.32,5.19-5.19v-6.77c33.91,22.17,79.36,12.65,101.53-21.25,22.17-33.91,12.65-79.36-21.25-101.53-24.39-15.94-55.9-15.94-80.28,0v-39.05h51.19c14.8,0,26.81-12,26.81-26.8,0-14.8-12-26.81-26.8-26.81h-51.2v-46.02c0-2.86-2.32-5.19-5.19-5.19h0ZM287.07,369.66v-23.76c0-1.99-1.15-3.8-2.94-4.67-18.27-8.75-25.98-30.66-17.23-48.93,1.7-3.55,3.96-6.8,6.69-9.63v23.26c0,1.87,1.01,3.6,2.64,4.52l21.22,11.93c1.58.88,3.5.88,5.08,0l21.21-11.93c1.64-.92,2.65-2.65,2.65-4.52v-23.31c6.55,6.87,10.24,15.99,10.29,25.49.13,14.12-7.97,27.03-20.74,33.06-1.85.84-3.03,2.69-3.03,4.72v23.76c-8.52,1.8-17.32,1.8-25.85,0h0ZM362.98,308.03c-.04,25.77-15.75,48.91-39.69,58.46v-17.39c14.77-8.33,23.87-24.01,23.77-40.97-.08-16.68-8.91-32.1-23.26-40.6-2.48-1.43-5.65-.58-7.08,1.9-.46.79-.7,1.69-.69,2.6v30.88l-16.03,9-16.02-9v-30.85c0-2.86-2.32-5.19-5.18-5.19-.93,0-1.84.25-2.64.72-22.41,13.18-29.9,42.02-16.72,64.43,4.17,7.09,10.13,12.97,17.28,17.04v17.45c-32.3-12.88-48.04-49.5-35.17-81.8,12.88-32.3,49.5-48.04,81.8-35.17,23.94,9.54,39.65,32.72,39.64,58.49h0ZM249.61,254.87c-29.36,27.65-30.73,73.87-3.08,103.23,1,1.06,2.02,2.08,3.08,3.08v9.82h-124.38V113.14h124.38v40.84h-59.79v.12c-.79-.05-1.56-.12-2.39-.12-19.34-.03-35.04,15.63-35.07,34.97-.03,19.34,15.63,35.04,34.97,35.07,12.08.02,23.31-6.19,29.73-16.43h32.57l-.02,47.28ZM212.07,189.01c0,13.61-11.04,24.65-24.65,24.65-13.61,0-24.65-11.04-24.65-24.65,0-13.61,11.04-24.65,24.65-24.65,13.6.01,24.63,11.03,24.65,24.64h0ZM327.58,180.77c0,9.07-7.34,16.42-16.41,16.44h-89.71c2.91-11.8-.56-24.27-9.16-32.87h98.87c9.06.03,16.39,7.37,16.41,16.42Z"/>
    <path class="st0" d="M206.99,253.89c-13.3-10.82-32.85-8.81-43.67,4.49-3.15,3.87-5.31,8.44-6.32,13.32-2.5,11.94,2.29,24.23,12.2,31.33v23.34c0,10.07,8.16,18.23,18.23,18.23s18.23-8.16,18.23-18.23v-23.34c13.85-10,16.97-29.34,6.97-43.19-1.61-2.23-3.5-4.23-5.64-5.95ZM197.84,295.77c-1.58.93-2.55,2.63-2.55,4.46v26.1c0,4.34-3.52,7.86-7.86,7.86s-7.86-3.52-7.86-7.86h0v-26.13c0-1.84-.97-3.54-2.56-4.47-9.85-5.71-13.21-18.32-7.5-28.17,2.89-4.99,7.74-8.54,13.37-9.79,1.51-.32,3.04-.48,4.58-.48,4.73,0,9.31,1.62,12.96,4.62,8.85,7.13,10.24,20.09,3.11,28.94-1.58,1.97-3.52,3.62-5.7,4.89v.02Z"/>
  </g>
</svg>