<?xml version="1.0" encoding="UTF-8"?>
<svg id="icons" xmlns="http://www.w3.org/2000/svg" version="1.1" viewBox="0 0 489.6 483.08">
  <!-- Generator: Adobe Illustrator 30.1.0, SVG Export Plug-In . SVG Version: 2.1.1 Build 136)  -->
  <defs>
    <style>
      .st0 {
        stroke: #ef4351;
      }

      .st0, .st1 {
        fill: none;
        stroke-miterlimit: 10;
      }

      .st2 {
        fill: #2463eb;
      }

      .st3 {
        fill: #e9effd;
      }

      .st1 {
        stroke: #ffd150;
      }
    </style>
  </defs>
  <rect class="st3" x="6.87" y="9.16" width="474.61" height="465.84" rx="65.23" ry="65.23"/>
  <g>
    <path class="st0" d="M376.57,232.66c0-17.57-14.25-31.8-31.81-31.81h-201.16c-17.57,0-31.82,14.25-31.82,31.82v53.6h264.79v-53.62Z"/>
    <path class="st2" d="M376.57,292.22H111.8c-3.3,0-5.97-2.67-5.97-5.97v-53.59c.02-20.85,16.92-37.75,37.77-37.78h201.16c20.85.02,37.75,16.92,37.78,37.78v53.6c0,3.29-2.67,5.96-5.97,5.96h0s0,0,0,0ZM117.76,280.33h252.85s.01,0,.01-.01v-47.65c-.02-14.28-11.58-25.84-25.86-25.86h-201.16c-14.28.02-25.85,11.59-25.86,25.86v47.65s.01.01.02.01Z"/>
    <path class="st0" d="M128.98,286.27h230.75v32.68h-230.75v-32.68Z"/>
    <path class="st2" d="M359.73,324.9h-230.75c-3.29,0-5.95-2.67-5.95-5.95v-32.68c0-3.28,2.67-5.94,5.95-5.94h230.75c3.29,0,5.95,2.67,5.95,5.95v32.68c0,3.28-2.67,5.94-5.95,5.94ZM134.91,312.98h218.86v-20.76h-218.86v20.76Z"/>
    <path class="st1" d="M359.73,290.57v28.37h-231.09v-28.42c0-10.34-8.38-18.72-18.72-18.72s-18.72,8.38-18.72,18.72v44.24c0,11.96,9.7,21.66,21.66,21.66.02,0,.05,0,.07,0l15.71-.05h231.09l15.68.07c11.96.04,21.69-9.63,21.73-21.59,0-.02,0-.05,0-.07v-44.21c0-10.34-8.38-18.72-18.72-18.72-10.33.02-18.69,8.39-18.69,18.72h0Z"/>
    <path class="st2" d="M375.5,365.39h-.13l-15.68-.07h-231.06l-15.69.05h-.09c-15.25,0-27.61-12.37-27.61-27.62v-44.24c0-13.63,11.05-24.68,24.68-24.68s24.68,11.05,24.68,24.68v22.46h219.16v-22.41c0-13.63,11.05-24.68,24.68-24.68s24.68,11.05,24.68,24.68v44.22c0,15.25-12.36,27.62-27.62,27.62h0,.01ZM359.72,353.4l15.71.07h.07c8.67,0,15.7-7.03,15.7-15.71v-44.21c-.16-7.05-5.99-12.64-13.04-12.48-6.83.15-12.33,5.65-12.48,12.48v28.37c0,3.29-2.67,5.95-5.95,5.95h-231.09c-3.29,0-5.95-2.67-5.95-5.95v-28.42c-.16-7.05-6-12.64-13.04-12.48-6.83.15-12.33,5.65-12.48,12.48v44.24c0,8.68,7.02,15.71,15.7,15.72.02,0,.04,0,.06,0l15.71-.05h231.11Z"/>
    <path class="st2" d="M160.63,386.07h-38.29c-3.29,0-5.95-2.67-5.95-5.95v-20.44c0-3.29,2.67-5.95,5.95-5.95h38.29c3.29,0,5.95,2.67,5.95,5.95v20.42c.01,3.29-2.64,5.97-5.93,5.98,0,0-.01,0-.02,0h0ZM128.29,374.17h26.37v-8.51h-26.37v8.51Z"/>
    <g>
      <path class="st2" d="M365,386.07h-38.29c-3.29,0-5.95-2.67-5.95-5.95v-20.44c0-3.29,2.67-5.95,5.95-5.95h38.29c3.29,0,5.96,2.66,5.96,5.95h0v20.43c.01,3.29-2.64,5.97-5.93,5.98-.01,0-.02,0-.03,0h0ZM332.67,374.16h26.37v-8.51h-26.37v8.51Z"/>
      <path class="st2" d="M289.87,295.21c-3.29,0-5.95-2.67-5.95-5.95v-44.58c0-3.29,2.67-5.96,5.96-5.96s5.96,2.67,5.96,5.96v44.58c0,3.29-2.67,5.95-5.95,5.95h0Z"/>
      <path class="st2" d="M198.49,295.21c-3.29,0-5.95-2.67-5.95-5.95v-44.58c0-3.29,2.67-5.96,5.96-5.96s5.96,2.67,5.96,5.96v44.58c0,3.29-2.67,5.95-5.95,5.95h0Z"/>
    </g>
    <path class="st2" d="M244.18,260.49c-44.78,0-81.2-36.43-81.2-81.2s36.43-81.2,81.2-81.2,81.2,36.43,81.2,81.2c.03,16.52-5.01,32.66-14.43,46.22-1.69,2.43-5.03,3.03-7.47,1.34-.26-.18-.5-.38-.73-.61l-33.53-33.53c-1.57-1.57-2.01-3.94-1.11-5.97,7.17-16.08-.06-34.93-16.14-42.1-5.65-2.52-11.9-3.34-18-2.36l8.86,8.9c7.33,7.33,7.59,19.25.56,26.52-7.17,7.44-19.01,7.66-26.45.49-.08-.08-.17-.16-.25-.24l-9.21-9.21c-1.58,10.09,1.74,20.33,8.93,27.58,9.37,9.29,23.47,11.9,35.54,6.58,2.03-.9,4.4-.46,5.97,1.11l33.6,33.6c2.1,2.09,2.1,5.49,0,7.59-.22.22-.46.42-.71.6-13.65,9.6-29.95,14.74-46.64,14.7h0ZM244.18,108.81c-38.92-.02-70.49,31.53-70.51,70.45-.02,38.92,31.53,70.49,70.45,70.51,12.31,0,24.41-3.21,35.09-9.34l-26.4-26.37c-15.4,5.22-32.44,1.28-43.99-10.17-12.41-12.52-15.9-31.35-8.8-47.48,1.21-2.71,4.38-3.92,7.08-2.71.6.27,1.14.64,1.61,1.11l15.55,15.55c3.12,3.12,8.17,3.12,11.29,0,.04-.04.07-.07.11-.11,3-3.1,2.81-8.27-.42-11.5l-15.24-15.24c-2.09-2.09-2.09-5.49,0-7.59.46-.46,1.01-.84,1.61-1.11,21.51-9.57,46.7.1,56.27,21.61,4.38,9.84,4.87,20.98,1.38,31.17l26.32,26.31c19.1-33.93,7.07-76.92-26.87-96.02-10.54-5.93-22.44-9.05-34.53-9.06h0Z"/>
    <path class="st2" d="M287.75,246.77c-1.43,0-2.8-.56-3.81-1.57l-31.1-31.12c-22.26,7.64-46.51-4.21-54.15-26.48-3.5-10.19-3.01-21.32,1.38-31.17,1.21-2.71,4.38-3.92,7.08-2.71.6.27,1.14.64,1.61,1.11l15.55,15.55c3.12,3.12,8.17,3.12,11.29,0,.04-.04.07-.07.11-.11,3-3.1,2.81-8.27-.42-11.5l-15.24-15.24c-2.09-2.09-2.09-5.49,0-7.59.46-.46,1.01-.84,1.61-1.11,21.51-9.57,46.7.1,56.27,21.61,4.38,9.84,4.87,20.98,1.38,31.17l31.04,31.04c1.83,1.83,2.09,4.7.62,6.83-5.47,7.89-12.28,14.75-20.14,20.26-.89.65-1.96,1.01-3.07,1.02h0Z"/>
    <path class="st2" d="M137.47,259.93c-2.96,0-5.36-2.4-5.36-5.36h0v-23.29c.1-2.96,2.58-5.28,5.54-5.18,2.82.1,5.08,2.36,5.18,5.18v23.29c0,2.96-2.4,5.36-5.36,5.36Z"/>
  </g>
</svg>