<?xml version="1.0" encoding="UTF-8"?>
<svg id="icons" xmlns="http://www.w3.org/2000/svg" version="1.1" viewBox="0 0 489.6 483.08">
  <!-- Generator: Adobe Illustrator 30.1.0, SVG Export Plug-In . SVG Version: 2.1.1 Build 136)  -->
  <defs>
    <style>
      .st0 {
        fill: #2463eb;
      }

      .st1 {
        fill: #e9effd;
      }
    </style>
  </defs>
  <rect class="st1" x="6.87" y="9.16" width="474.61" height="465.84" rx="65.23" ry="65.23"/>
  <g>
    <path class="st0" d="M334.12,223.65c.22-22.3-17.68-40.55-39.97-40.76-22.3-.22-40.55,17.68-40.76,39.97,0,.26,0,.53,0,.79v10.71h80.74v-10.71Z"/>
    <path class="st0" d="M267.23,149.03c0,14.64,11.87,26.52,26.52,26.52s26.52-11.87,26.52-26.52-11.87-26.52-26.52-26.52h0c-14.64.02-26.5,11.88-26.52,26.52Z"/>
    <circle class="st0" cx="244.17" cy="316.31" r="21.82"/>
    <path class="st0" d="M122.29,361.64h243.77v-90.65H122.29v90.65ZM244.17,284.45c17.6,0,31.86,14.26,31.86,31.86s-14.26,31.86-31.86,31.86-31.86-14.26-31.86-31.86h0c.02-17.59,14.27-31.84,31.86-31.86Z"/>
    <path class="st0" d="M131.18,220.14v14.21h62.81v-14.21c0-3.05-2.47-5.52-5.52-5.52h-51.78c-3.04,0-5.51,2.48-5.5,5.52Z"/>
    <path class="st0" d="M236.26,244.37H103.66v16.58h281.02v-16.58h-148.43Z"/>
    <path class="st0" d="M166.21,194.09c-.96-.96-2.27-1.5-3.63-1.51-2.87.02-5.18,2.35-5.17,5.22v6.78h10.34v-6.76c0-1.4-.56-2.74-1.54-3.73Z"/>
  </g>
</svg>