<?xml version="1.0" encoding="UTF-8"?>
<svg id="icons" xmlns="http://www.w3.org/2000/svg" version="1.1" viewBox="0 0 489.6 483.08">
  <!-- Generator: Adobe Illustrator 30.1.0, SVG Export Plug-In . SVG Version: 2.1.1 Build 136)  -->
  <defs>
    <style>
      .st0 {
        fill: #2463eb;
      }

      .st1 {
        fill: #e9effd;
      }
    </style>
  </defs>
  <rect class="st1" x="6.87" y="9.16" width="474.61" height="465.84" rx="65.23" ry="65.23"/>
  <g>
    <path class="st0" d="M234.63,321.82c-.38-8-1.36-15.96-2.94-23.81-2.9-11.86-7.44-23.53-7.64-35.89h4.88c2.56,0,4.64-2.06,4.65-4.62,0-2.56-2.06-4.64-4.62-4.65,0,0-.02,0-.03,0,0,0-21.14.05-21.19,0v-8.12c-.02-7.07-5.49-12.92-12.54-13.42v-64.08c-.04-2.56-2.15-4.61-4.71-4.56-2.5.04-4.53,2.06-4.56,4.57v63.98h-13.27v-63.98c0-2.56-2.09-4.63-4.65-4.62-2.55,0-4.62,2.07-4.62,4.62v64.03c-7.25.27-12.99,6.21-13,13.46v8.12c-5.27.03-15.94-.02-21.19,0-2.56.04-4.61,2.14-4.57,4.7.04,2.51,2.06,4.53,4.57,4.57h5.31c-.3,6.42-1.29,12.8-2.95,19.01-.64,2.48.86,5.01,3.34,5.65,2.43.62,4.92-.8,5.61-3.22,1.87-7,2.97-14.19,3.28-21.44h6.67c.33,4.74,4.26,8.42,9.01,8.43h39.22c4.75-.01,8.68-3.69,9.01-8.43h7.09c.5,20.09,10.4,37.99,10.47,58.36-8.11,1.17-14.14,8.1-14.17,16.29,0,.62-.49,1.12-1.11,1.13,0,0-.02,0-.03,0h-28.67c-2.56,0-4.64,2.08-4.64,4.64,0,2.56,2.08,4.64,4.64,4.64h28.67c5.74,0,10.4-4.66,10.41-10.4.09-4.03,3.44-7.23,7.47-7.14,3.9.09,7.05,3.23,7.14,7.14-.04,12.39-10.08,22.42-22.47,22.47h-66.46c-12.4-.01-22.45-10.06-22.47-22.47.02-3.42,2.4-6.37,5.75-7.1,4.02-.8,7.92,1.81,8.72,5.82.08.42.13.85.14,1.28,0,5.73,4.63,10.39,10.36,10.4h14.85c2.56-.04,4.61-2.14,4.57-4.7-.03-2.51-2.06-4.54-4.57-4.57h-14.85c-.61-.01-1.1-.52-1.09-1.13,0-8.19-6.07-15.11-14.19-16.2.35-6.5,1.14-12.97,2.37-19.36.49-2.54-1.17-5-3.71-5.49-2.54-.49-5,1.17-5.49,3.71-.05.27-.08.54-.09.82-1.27,7.13-2.09,14.34-2.47,21.57-5.84,2.68-9.59,8.52-9.58,14.95.02,17.52,14.22,31.72,31.74,31.74h66.46c8.43.01,16.52-3.33,22.48-9.29,9.91-9.51,14.66-30.42-.34-37.41ZM198.46,261.28l-38.82.2v-16.75c0-2.34,1.9-4.24,4.24-4.24,5.46,0,24.85,0,30.34,0,2.34,0,4.24,1.9,4.24,4.24v16.55Z"/>
    <path class="st0" d="M369.17,278.04c-1.38-1.36-2.98-2.47-4.74-3.27-.38-7.22-1.19-14.4-2.44-21.52-2.76-12.67-7.96-25-8.14-38.14h4.88c2.56,0,4.64-2.08,4.64-4.64s-2.08-4.64-4.64-4.64c-5.24-.01-15.91,0-21.19,0v-8.12c-.02-7.07-5.49-12.92-12.54-13.42v-64.08c-.04-2.56-2.15-4.61-4.71-4.57-2.51.04-4.53,2.06-4.57,4.57v63.98h-13.27v-63.98c-.04-2.56-2.15-4.61-4.71-4.56-2.5.04-4.52,2.06-4.56,4.56v64.03c-7.25.27-12.99,6.21-13,13.46v8.12h-21.2c-2.56,0-4.64,2.08-4.64,4.64,0,2.56,2.08,4.64,4.64,4.64h5.2c-.2,4.96-.82,9.9-1.84,14.77-.55,2.5,1.03,4.98,3.53,5.53,2.5.55,4.98-1.03,5.53-3.53,1.2-5.51,1.93-11.12,2.18-16.76h6.66c.33,4.74,4.26,8.41,9.01,8.43h39.22c4.75-.01,8.68-3.69,9.01-8.43h7.09c.15,13.04,4.66,25.4,7.86,37.89,1.39,6.74,2.27,13.57,2.61,20.44-8.12,1.18-14.16,8.13-14.18,16.34.01.61-.47,1.12-1.09,1.13h-61.4c-.62,0-1.13-.49-1.13-1.11,0,0,0-.01,0-.02-.03-8.21-6.06-15.16-14.18-16.35.35-6.1,1.06-12.17,2.13-18.19.7-3.88,3.36-9.18-1.94-10.93-5.6-1.42-6.32,5.01-7.12,8.95-1.26,7.12-2.09,14.31-2.47,21.53-5.84,2.7-9.58,8.55-9.58,14.99.02,17.52,14.22,31.72,31.74,31.74h45.8c2.56-.04,4.61-2.14,4.57-4.7-.03-2.51-2.06-4.54-4.57-4.57h-45.8c-12.4-.01-22.45-10.06-22.47-22.47-.01-4.03,3.24-7.31,7.28-7.33,4.03-.01,7.31,3.25,7.33,7.28,0,.02,0,.03,0,.05,0,5.75,4.66,10.4,10.41,10.41h61.4c5.73-.02,10.37-4.68,10.36-10.41,0-4.03,3.27-7.3,7.3-7.31,12.13,1.15,6.85,17.67.76,23.19-4.97,4.82-11.8,7.22-18.7,6.58-2.56,0-4.64,2.08-4.64,4.64,0,2.56,2.08,4.64,4.64,4.64,9.36.68,18.56-2.71,25.26-9.29,8.42-8.57,13.69-24.45,4.41-34.18ZM328.26,214.26l-38.82.2v-16.75c0-2.34,1.9-4.24,4.24-4.24,5.46,0,24.85,0,30.34,0,2.34,0,4.24,1.9,4.24,4.24v16.55Z"/>
    <path class="st0" d="M179.05,246.41c-2.47.01-4.46,2.02-4.45,4.49.01,2.46,2,4.44,4.45,4.45,2.47-.01,4.46-2.02,4.45-4.49-.01-2.46-2-4.44-4.45-4.45Z"/>
    <path class="st0" d="M308.85,199.39c-2.47.03-4.44,2.07-4.41,4.54.03,2.42,1.99,4.38,4.41,4.41,2.47-.03,4.44-2.07,4.41-4.54-.03-2.42-1.99-4.38-4.41-4.41Z"/>
  </g>
</svg>