<?xml version="1.0" encoding="UTF-8"?>
<svg id="icons" xmlns="http://www.w3.org/2000/svg" version="1.1" viewBox="0 0 489.6 483.08">
  <!-- Generator: Adobe Illustrator 30.1.0, SVG Export Plug-In . SVG Version: 2.1.1 Build 136)  -->
  <defs>
    <style>
      .st0 {
        fill: none;
        stroke: #2463eb;
        stroke-miterlimit: 10;
        stroke-width: 15px;
      }

      .st1 {
        fill: #e9effd;
      }
    </style>
  </defs>
  <rect class="st1" x="6.87" y="9.16" width="474.61" height="465.84" rx="65.23" ry="65.23"/>
  <g>
    <path class="st0" d="M320.68,196.92l-11.96-88.59h-131.55l-11.96,88.59c-20.16,4.99-34.86,23.6-33.96,45.32,2.29,34.32,33.96,60.99,33.96,60.99h155.47s31.68-26.67,33.96-60.99c.89-21.72-13.81-40.33-33.96-45.32Z"/>
    <line class="st0" x1="189.12" y1="303.23" x2="170.21" y2="385.05"/>
    <line class="st0" x1="296.76" y1="303.23" x2="315.67" y2="385.05"/>
    <path class="st0" d="M293.77,231.47h-101.65c-9.91,0-17.94,8.03-17.94,17.94h0c0,9.91,8.97,17.94,8.97,17.94h119.59s8.97-8.03,8.97-17.94h0c0-9.91-8.03-17.94-17.94-17.94Z"/>
    <line class="st0" x1="165.21" y1="196.92" x2="183.14" y2="231.47"/>
    <line class="st0" x1="320.68" y1="196.92" x2="302.74" y2="231.47"/>
    <line class="st0" x1="268.45" y1="145.66" x2="251.63" y2="145.66"/>
    <line class="st0" x1="234.25" y1="145.66" x2="217.43" y2="145.66"/>
    <line class="st0" x1="268.45" y1="179.76" x2="251.63" y2="179.76"/>
    <line class="st0" x1="234.25" y1="179.76" x2="217.43" y2="179.76"/>
  </g>
</svg>