<?xml version="1.0" encoding="UTF-8"?>
<svg id="icons" xmlns="http://www.w3.org/2000/svg" version="1.1" viewBox="0 0 489.6 483.08">
  <!-- Generator: Adobe Illustrator 30.1.0, SVG Export Plug-In . SVG Version: 2.1.1 Build 136)  -->
  <defs>
    <style>
      .st0 {
        fill: #2463eb;
      }

      .st1 {
        fill: #e9effd;
      }
    </style>
  </defs>
  <rect class="st1" x="6.87" y="9.16" width="474.61" height="465.84" rx="65.23" ry="65.23"/>
  <g id="_x32_0_x2C__Chair_x2C__furniture_x2C__office_chair_x2C__table">
    <g>
      <path class="st0" d="M303.63,228.08h20.98v20.98h-20.98v-20.98Z"/>
      <path class="st0" d="M149.75,228.08h20.98v20.98h-20.98v-20.98Z"/>
      <path class="st0" d="M296.63,133.66c0-17.36-14.12-31.47-31.47-31.47h-55.96c-17.36,0-31.47,14.12-31.47,31.47v115.41h118.9v-115.41ZM209.2,224.58c-3.86,0-6.99-3.13-6.99-6.99s3.13-6.99,6.99-6.99,6.99,3.13,6.99,6.99-3.13,6.99-6.99,6.99ZM209.2,196.6c-3.86,0-6.99-3.13-6.99-6.99s3.13-6.99,6.99-6.99,6.99,3.13,6.99,6.99-3.13,6.99-6.99,6.99ZM209.2,168.63c-3.86,0-6.99-3.13-6.99-6.99s3.13-6.99,6.99-6.99,6.99,3.13,6.99,6.99-3.13,6.99-6.99,6.99ZM209.2,140.65c-3.86,0-6.99-3.13-6.99-6.99s3.13-6.99,6.99-6.99,6.99,3.13,6.99,6.99-3.13,6.99-6.99,6.99ZM237.18,224.58c-3.86,0-6.99-3.13-6.99-6.99s3.13-6.99,6.99-6.99,6.99,3.13,6.99,6.99-3.13,6.99-6.99,6.99ZM237.18,196.6c-3.86,0-6.99-3.13-6.99-6.99s3.13-6.99,6.99-6.99,6.99,3.13,6.99,6.99-3.13,6.99-6.99,6.99ZM237.18,168.63c-3.86,0-6.99-3.13-6.99-6.99s3.13-6.99,6.99-6.99,6.99,3.13,6.99,6.99-3.13,6.99-6.99,6.99ZM237.18,140.65c-3.86,0-6.99-3.13-6.99-6.99s3.13-6.99,6.99-6.99,6.99,3.13,6.99,6.99-3.13,6.99-6.99,6.99ZM265.16,224.58c-3.86,0-6.99-3.13-6.99-6.99s3.13-6.99,6.99-6.99,6.99,3.13,6.99,6.99-3.13,6.99-6.99,6.99ZM265.16,196.6c-3.86,0-6.99-3.13-6.99-6.99s3.13-6.99,6.99-6.99,6.99,3.13,6.99,6.99-3.13,6.99-6.99,6.99ZM265.16,168.63c-3.86,0-6.99-3.13-6.99-6.99s3.13-6.99,6.99-6.99,6.99,3.13,6.99,6.99-3.13,6.99-6.99,6.99ZM265.16,140.65c-3.86,0-6.99-3.13-6.99-6.99s3.13-6.99,6.99-6.99,6.99,3.13,6.99,6.99-3.13,6.99-6.99,6.99Z"/>
      <path class="st0" d="M326.36,298.02l32.06,76.94h20.4l-32.06-76.94h-20.4Z"/>
      <path class="st0" d="M300.13,256.06H100.79v13.99h122.4c1.93,0,3.5,1.57,3.5,3.5s-1.57,3.5-3.5,3.5h-122.4v13.99h132.89v70.25c-11.29.02-22.87-.05-31.37-.31-9.93-.3-17.03,1.96-21.13,6.69-3.54,4.09-3.8,9.09-3.4,11.4.3,1.7,1.78,2.92,3.45,2.92.2,0,.4-.02.6-.05,1.9-.33,3.18-2.12,2.85-4.02-.02-.13-.43-3.17,1.86-5.74,2.64-2.97,8.03-4.42,15.57-4.19,8.57.25,20.23.32,31.58.31v10.18c0,1.93,1.57,3.5,3.5,3.5s3.5-1.57,3.5-3.5v-10.2c16.8-.07,31.27-.28,31.53-.29.16,0,.32-.02.48-.04,2.79-.42,10.86-.74,14.7,2.84,1.79,1.67,2.53,4.09,2.26,7.42-.15,1.92,1.28,3.61,3.21,3.77,1.93.16,3.61-1.28,3.77-3.21.55-6.88-2.14-10.93-4.49-13.11-6.66-6.17-18.29-4.91-20.25-4.65-1.89.03-15.53.22-31.2.28v-70.23h146.88v-34.97h-87.43Z"/>
      <path class="st0" d="M109.53,374.96h20.4l32.06-76.94h-20.4l-32.06,76.94Z"/>
    </g>
  </g>
</svg>