<?xml version="1.0" encoding="UTF-8"?>
<svg id="icons" xmlns="http://www.w3.org/2000/svg" version="1.1" viewBox="0 0 489.6 483.08">
  <!-- Generator: Adobe Illustrator 30.1.0, SVG Export Plug-In . SVG Version: 2.1.1 Build 136)  -->
  <defs>
    <style>
      .st0 {
        fill: #2463eb;
      }

      .st1 {
        fill: #e9effd;
      }
    </style>
  </defs>
  <rect class="st1" x="6.87" y="9.16" width="474.61" height="465.84" rx="65.23" ry="65.23"/>
  <g>
    <path class="st0" d="M112.74,279.59v93.76c0,5.18,4.2,9.38,9.38,9.38h9.38c5.18,0,9.38-4.2,9.38-9.38v-14.06h65.63v14.06c0,5.18,4.2,9.38,9.38,9.38h9.38c5.18,0,9.38-4.2,9.38-9.38v-93.76c5.18,0,9.38-4.2,9.38-9.38v-9.38c0-5.18-4.2-9.38-9.38-9.38h-9.38v-75.01c7.77,0,14.06-6.3,14.06-14.06v-46.88c0-7.77-6.3-14.06-14.06-14.06h-103.14c-7.77,0-14.06,6.3-14.06,14.06v46.88c0,7.77,6.3,14.06,14.06,14.06v75.01h-9.38c-5.18,0-9.38,4.2-9.38,9.38v9.38c0,5.18,4.2,9.38,9.38,9.38ZM122.11,373.35v-93.76h9.38v93.76h-9.38ZM206.5,279.59v51.57h-65.63v-51.57h65.63ZM140.87,349.91v-9.38h65.63v9.38h-65.63ZM225.25,373.35h-9.38v-93.76h9.38v93.76ZM215.88,251.46h-9.38v-75.01h9.38v75.01ZM187.75,251.46v-75.01h9.38v75.01h-9.38ZM169,251.46v-75.01h9.38v75.01h-9.38ZM150.24,251.46v-75.01h9.38v75.01h-9.38ZM197.13,167.07h-46.88v-14.06c0-7.77,6.3-14.06,14.06-14.06h18.75c7.77,0,14.06,6.3,14.06,14.06v14.06ZM117.43,162.38v-46.88c0-2.59,2.1-4.69,4.69-4.69h103.14c2.59,0,4.69,2.1,4.69,4.69v46.88c0,2.59-2.1,4.69-4.69,4.69h-18.75v-14.06c-.02-12.94-10.5-23.43-23.44-23.44h-18.75c-12.94.02-23.43,10.5-23.44,23.44v14.06h-18.75c-2.59,0-4.69-2.1-4.69-4.69ZM131.49,176.45h9.38v75.01h-9.38v-75.01ZM112.74,260.83h121.89v9.38h-121.89v-9.38Z"/>
    <path class="st0" d="M356.73,184.94c-6.83-2.16-13.06-5.87-18.23-10.83l-.3-.3,9.94-9.95c5.49-5.49,5.49-14.4,0-19.89l-9.94-9.93s-.08-.05-.12-.08l-16.01-16.01c-.12-.15-.25-.29-.38-.43-.13-.13-.27-.26-.42-.37l-12.91-12.95c-1.75-1.77-4.13-2.76-6.62-2.76h0c-2.49-.01-4.88.98-6.64,2.74l-45.62,45.62c-3.52,3.51-5.5,8.29-5.48,13.26v36.83c.04,7.75,6.31,14.03,14.06,14.06,7.77,0,14.06-6.3,14.06-14.06v-12.58l6.39,6.39h0l9.93,9.94c5.49,5.49,14.4,5.49,19.89,0,0,0,0,0,0,0l9.94-9.94.3.3c4.96,5.16,8.66,11.4,10.82,18.23,2.16,6.11,5.69,11.64,10.31,16.18,6.7,7.22,15.95,11.54,25.78,12.07,5.22.16,10.28-1.8,14.04-5.43,9.29-9.29,6.38-26.77-6.64-39.79-4.54-4.63-10.07-8.16-16.18-10.32ZM264.13,168.48c-.87.87-1.36,2.05-1.37,3.28v28.13c0,2.59-2.1,4.69-4.69,4.69-1.26,0-2.47-.52-3.34-1.43-.87-.86-1.36-2.03-1.35-3.25v-36.83c0-2.49.98-4.88,2.75-6.63l45.6-45.62,10.01,10.04-47.6,47.63ZM272.14,173.71l46.23-46.23,9.87,9.87-46.41,46.41-9.69-9.72v-.34ZM301.74,197.01c-1.83,1.83-4.8,1.83-6.63,0,0,0,0,0,0,0l-6.63-6.63,46.41-46.41,6.63,6.63c1.83,1.83,1.83,4.79,0,6.62h0l-39.78,39.78ZM372.93,228.42c-5.39,5.39-17.54,2.34-26.54-6.64-3.61-3.52-6.37-7.82-8.08-12.57-2.62-8.19-7.09-15.66-13.08-21.84l-.3-.3,6.63-6.63.3.3c6.18,5.97,13.65,10.44,21.83,13.06,4.75,1.7,9.05,4.47,12.57,8.08,9,9.02,12.04,21.17,6.65,26.56h0Z"/>
    <path class="st0" d="M258.07,223.33c-7.77,0-14.06,6.3-14.06,14.06s6.3,14.06,14.06,14.06,14.06-6.3,14.06-14.06h0c0-7.77-6.3-14.06-14.06-14.06ZM258.07,242.08c-2.59,0-4.69-2.1-4.69-4.69s2.1-4.69,4.69-4.69,4.69,2.1,4.69,4.69-2.1,4.69-4.69,4.69Z"/>
    <path class="st0" d="M351.84,270.21h-75.01c-5.18,0-9.38,4.2-9.38,9.38v9.38c.01,3.33,1.8,6.41,4.69,8.07v58.86c-2.89,1.66-4.68,4.74-4.69,8.07v9.38c0,5.18,4.2,9.38,9.38,9.38h75.01c5.18,0,9.38-4.2,9.38-9.38v-9.38c-.01-3.33-1.8-6.41-4.69-8.07v-58.86c2.89-1.66,4.68-4.74,4.69-8.07v-9.38c0-5.18-4.2-9.38-9.38-9.38ZM276.82,279.59h75.01v9.38h-75.01v-9.38ZM347.15,354.6h-65.63v-56.26h65.63v56.26ZM276.82,373.35v-9.38h75.01v9.38h-75.01Z"/>
  </g>
</svg>