<?xml version="1.0" encoding="UTF-8"?>
<svg id="icons" xmlns="http://www.w3.org/2000/svg" version="1.1" viewBox="0 0 489.6 483.08">
  <!-- Generator: Adobe Illustrator 30.1.0, SVG Export Plug-In . SVG Version: 2.1.1 Build 136)  -->
  <defs>
    <style>
      .st0 {
        fill: #2463eb;
      }

      .st1 {
        fill: #e9effd;
      }
    </style>
  </defs>
  <rect class="st1" x="6.87" y="9.16" width="474.61" height="465.84" rx="65.23" ry="65.23"/>
  <g>
    <path class="st0" d="M205.77,378.85c0,8.26,6.7,14.96,14.96,14.96s14.96-6.7,14.96-14.96v-80.87h-29.92v80.87h0Z"/>
    <path class="st0" d="M219.66,264.25c-1.48-2.34-2.34-5.12-2.34-8.09v-52.67c-4.55,5.55-10.9,4.9-11.12,4.95-1.89,2.44-4.84,4.02-8.15,4.02h-17.19v5.71c4.06,1.15,7.05,4.88,7.05,9.31v5.66c0,5.34-4.34,9.68-9.68,9.68h-8.85v21.42h29.93v-4.97h6.46v4.97h13.89Z"/>
    <path class="st0" d="M169.39,378.85c0,8.26,6.7,14.96,14.96,14.96s14.96-6.7,14.96-14.96v-80.87h-29.92v80.87h0Z"/>
    <path class="st0" d="M373.7,176.03h-67.05v88.22h67.05c4.47,0,8.09-3.62,8.09-8.09v-72.04c0-4.47-3.62-8.09-8.09-8.09h0ZM321.94,224.91c-2.79,0-5.04-2.26-5.04-5.04s2.26-5.04,5.04-5.04,5.04,2.26,5.04,5.04-2.26,5.04-5.04,5.04h0Z"/>
    <circle class="st0" cx="191.94" cy="116.18" r="25.84"/>
    <path class="st0" d="M178.23,235.74c1.43,0,2.58-1.16,2.58-2.58v-5.66c0-1.43-1.16-2.58-2.58-2.58h-4.47v-12.44h-7.43c3.53,8.09,1.12,17.84-6.4,23.27h18.3Z"/>
    <path class="st0" d="M198.43,205.35v-20.83c-.13-.02-.26-.03-.39-.03h-32.31c-5.77,0-10.44,4.68-10.44,10.44s4.68,10.44,10.44,10.44h32.31c.13,0,.26-.01.39-.03h0Z"/>
    <path class="st0" d="M232.5,264.25h67.05v-88.22h-67.05c-4.47,0-8.09,3.62-8.09,8.09v7.26h-12.2c-2.36-3.55-6.18-2.77-6.69-2.87v12.84c.51-.11,4.33.68,6.69-2.87h12.2v57.68c0,4.47,3.62,8.09,8.09,8.09h0ZM285.28,214.82c2.79,0,5.04,2.26,5.04,5.04s-2.26,5.04-5.04,5.04-5.04-2.26-5.04-5.04,2.26-5.04,5.04-5.04h0Z"/>
    <path class="st0" d="M110.87,290.89h233.91c2.38,0,4.31-1.93,4.31-4.31v-10.92c0-2.38-1.93-4.31-4.31-4.31H110.87c-2.38,0-4.31,1.93-4.31,4.31v10.92c0,2.38,1.93,4.31,4.31,4.31Z"/>
    <path class="st0" d="M139.22,228.23c4.46,5.23,12.33,5.86,17.58,1.38,5.23-4.47,5.86-12.34,1.38-17.58l-20.63-24.15c.99-.82,23.33-19.34,23.96-19.99,1.95-2.01,4.68-3.16,7.48-3.16h.38v12.65h28.66c3.32,0,6.27,1.58,8.15,4.02.2.04,6.59-.57,11.12,4.95v-2.25c0-8.37,6.81-15.19,15.19-15.19h3.07v-4.19s.43,0,.43,0c2.49,0,4.77,1.96,5,4.19h24.95c-.21-16.08-13.59-29.12-29.95-29.12h-21.15c-5.93,5.75-14.01,9.31-22.91,9.31s-16.98-3.55-22.91-9.31h-.03c-9.25,0-18.26,3.71-24.84,10.2-15.16,12.59-26.47,21.98-32.25,26.78-5.35,4.44-6.03,12.4-1.52,17.69l28.83,33.76Z"/>
  </g>
</svg>