<?xml version="1.0" encoding="UTF-8"?>
<svg id="icons" xmlns="http://www.w3.org/2000/svg" version="1.1" viewBox="0 0 489.6 483.08">
  <!-- Generator: Adobe Illustrator 30.1.0, SVG Export Plug-In . SVG Version: 2.1.1 Build 136)  -->
  <defs>
    <style>
      .st0 {
        fill: #2463eb;
      }

      .st1 {
        fill: #e9effd;
      }
    </style>
  </defs>
  <rect class="st1" x="6.87" y="9.16" width="474.61" height="465.84" rx="65.23" ry="65.23"/>
  <g id="layer44">
    <g id="g51363">
      <g id="path19490">
        <path class="st0" d="M233.63,203.98h-29.46c-23.13-.03-41.88-18.77-41.9-41.9v-11.43c.02-16.82,13.65-30.46,30.48-30.48h52.31c16.82.02,30.46,13.65,30.48,30.48v11.43c-.03,23.13-18.77,41.88-41.9,41.9h0ZM192.75,127.79c-12.62.01-22.84,10.24-22.86,22.86v11.43c.02,18.93,15.36,34.27,34.29,34.29h29.46c18.93-.02,34.27-15.36,34.29-34.29v-11.43c-.01-12.62-10.24-22.84-22.86-22.86h-52.32Z"/>
      </g>
      <g id="path21396">
        <path class="st0" d="M207.98,226.84c-2.1,0-3.81-1.7-3.81-3.81h0v-22.86c0-2.1,1.71-3.81,3.81-3.81s3.81,1.71,3.81,3.81v22.86c0,2.1-1.7,3.81-3.81,3.81h0Z"/>
      </g>
      <g id="path24898">
        <path class="st0" d="M226.01,287.79h-14.22c-6.31,0-11.42-5.12-11.43-11.43v-7.62c0-2.1,1.71-3.81,3.81-3.81s3.81,1.71,3.81,3.81v7.62c0,2.1,1.71,3.81,3.81,3.81h14.22c2.1,0,3.81-1.71,3.81-3.81v-7.62c0-2.1,1.71-3.81,3.81-3.81s3.81,1.71,3.81,3.81v7.62c0,6.31-5.12,11.42-11.43,11.43h0Z"/>
      </g>
      <g id="path26777">
        <path class="st0" d="M212.22,353.84c-1.64,0-3.1-1.05-3.62-2.6l-3.17-9.53-34.8,6.96c-1.12.23-2.28-.06-3.16-.79-.88-.72-1.4-1.8-1.4-2.95v-15.24c0-1.72,1.15-3.22,2.81-3.68l39.1-10.66v-31.38c0-2.1,1.71-3.81,3.81-3.81s3.81,1.71,3.81,3.81v34.29c0,1.72-1.15,3.22-2.81,3.68l-39.1,10.66v7.68l33.54-6.71c1.89-.39,3.76.7,4.36,2.53l4.24,12.72c.66,2-.42,4.15-2.41,4.82-.39.13-.8.19-1.21.19h0Z"/>
      </g>
      <g id="path28577">
        <path class="st0" d="M169.89,363.98c-6.31,0-11.43-5.12-11.43-11.43s5.12-11.43,11.43-11.43,11.43,5.12,11.43,11.43h0c0,6.31-5.12,11.42-11.43,11.43h0ZM169.89,348.75c-2.1,0-3.81,1.71-3.81,3.81s1.71,3.81,3.81,3.81,3.81-1.71,3.81-3.81-1.71-3.81-3.81-3.81Z"/>
      </g>
      <g id="circle28659">
        <path class="st0" d="M219.41,363.98c-6.31,0-11.43-5.12-11.43-11.43s5.12-11.43,11.43-11.43,11.43,5.12,11.43,11.43h0c0,6.31-5.12,11.42-11.43,11.43h0ZM219.41,348.75c-2.1,0-3.81,1.71-3.81,3.81s1.71,3.81,3.81,3.81,3.81-1.71,3.81-3.81-1.71-3.81-3.81-3.81Z"/>
      </g>
      <g id="path28818">
        <path class="st0" d="M226.01,303.03h-14.22c-2.1,0-3.81-1.71-3.81-3.81s1.71-3.81,3.81-3.81h14.22c2.1,0,3.81,1.71,3.81,3.81s-1.71,3.81-3.81,3.81Z"/>
      </g>
      <g id="path30172">
        <path class="st0" d="M187.75,296.6c-2.1,0-3.81-1.71-3.81-3.81,0-1.01.4-1.98,1.12-2.69l8.81-8.81c.71-.71,1.68-1.12,2.69-1.12h15.24c2.1,0,3.81,1.71,3.81,3.81s-1.71,3.81-3.81,3.81h-13.66l-7.69,7.69c-.71.72-1.68,1.12-2.69,1.12h0Z"/>
      </g>
      <g id="rect30196">
        <path class="st0" d="M185.13,310.65h-7.62c-4.21,0-7.61-3.41-7.62-7.62v-7.62c0-4.21,3.41-7.61,7.62-7.62h7.62c4.21,0,7.61,3.41,7.62,7.62v7.62c0,4.21-3.41,7.61-7.62,7.62ZM185.13,295.41h-7.63v7.62h7.63v-7.62Z"/>
      </g>
      <g id="path31614">
        <path class="st0" d="M229.82,226.84c-2.1,0-3.81-1.7-3.81-3.81h0v-22.86c0-2.1,1.71-3.81,3.81-3.81s3.81,1.71,3.81,3.81v22.86c0,2.1-1.7,3.81-3.81,3.81h0Z"/>
      </g>
      <g id="path31616">
        <path class="st0" d="M271.73,272.56h-105.65c-6.31,0-11.42-5.12-11.43-11.43v-11.43c.02-16.82,13.65-30.46,30.48-30.48h67.55c16.82.02,30.46,13.65,30.48,30.48v11.43c0,6.31-5.12,11.42-11.43,11.43h0ZM185.13,226.84c-12.62,0-22.84,10.24-22.86,22.86v11.43c0,2.1,1.71,3.81,3.81,3.81h105.65c2.1,0,3.81-1.71,3.81-3.81v-11.43c-.01-12.62-10.24-22.84-22.86-22.86h-67.55,0Z"/>
      </g>
      <g id="path31620">
        <path class="st0" d="M226.01,352.56c-.41,0-.82-.07-1.21-.19-2-.67-3.07-2.82-2.41-4.82l3.81-11.43c.6-1.83,2.48-2.91,4.36-2.53l33.54,6.71v-7.68l-39.1-10.66c-1.66-.45-2.81-1.96-2.81-3.68v-34.29c0-2.1,1.71-3.81,3.81-3.81s3.81,1.71,3.81,3.81v31.38l39.1,10.66c1.66.45,2.81,1.96,2.81,3.68v15.24c0,1.14-.51,2.22-1.4,2.95-.88.73-2.04,1.02-3.16.79l-34.8-6.96-2.75,8.24c-.52,1.55-1.98,2.6-3.62,2.6h.02Z"/>
      </g>
      <g id="circle31626">
        <path class="st0" d="M267.92,363.98c-6.31,0-11.43-5.12-11.43-11.43s5.12-11.43,11.43-11.43,11.43,5.12,11.43,11.43h0c0,6.31-5.12,11.42-11.43,11.43ZM267.92,348.75c-2.1,0-3.81,1.71-3.81,3.81s1.71,3.81,3.81,3.81,3.81-1.71,3.81-3.81-1.71-3.81-3.81-3.81Z"/>
      </g>
      <g id="g47293">
        <g id="rect34819">
          <path class="st0" d="M326.08,243.98h-30.48c-4.21,0-7.61-3.41-7.62-7.62v-7.62c0-2.73,1.46-5.25,3.82-6.61l.04-6.79c-2.44-2.55-3.82-5.93-3.87-9.46v-60.95c0-6.31,5.12-11.42,11.43-11.43h22.86c6.31,0,11.42,5.12,11.43,11.43v60.95c-.04,3.53-1.43,6.91-3.87,9.46l.04,6.79c2.36,1.36,3.82,3.88,3.82,6.61v7.62c0,4.21-3.41,7.61-7.62,7.62h.02ZM299.41,141.13c-2.08-.02-3.79,1.65-3.81,3.73v61.03c0,1.64.7,3.21,1.93,4.3,1.21.68,1.95,1.96,1.94,3.34l-.07,11.43c-.01,2.1-1.71,3.79-3.81,3.79v7.62h30.48v-7.62c-2.1,0-3.8-1.69-3.81-3.79l-.07-11.43c0-1.38.74-2.66,1.94-3.34,1.23-1.09,1.94-2.65,1.93-4.3v-60.95c.02-2.08-1.65-3.79-3.73-3.81h-22.94.02Z"/>
        </g>
        <g id="path38413">
          <path class="st0" d="M310.84,358.27c-1.27,0-2.46-.64-3.17-1.7l-7.62-11.43c-.42-.63-.64-1.36-.64-2.11v-102.86c0-2.1,1.71-3.81,3.81-3.81s3.81,1.71,3.81,3.81v101.7l3.81,5.71,3.81-5.71v-101.7c0-2.1,1.71-3.81,3.81-3.81s3.81,1.71,3.81,3.81v102.86c0,.75-.22,1.49-.64,2.11l-7.62,11.43c-.71,1.06-1.9,1.7-3.17,1.7h0Z"/>
        </g>
        <g id="path40877">
          <path class="st0" d="M326.08,217.32h-30.41c-2.1,0-3.81-1.71-3.81-3.81s1.71-3.81,3.81-3.81h30.41c2.1,0,3.81,1.71,3.81,3.81s-1.71,3.81-3.81,3.81Z"/>
        </g>
        <g id="path41198">
          <path class="st0" d="M310.84,202.08c-2.1,0-3.81-1.7-3.81-3.81h0v-45.72c0-2.1,1.71-3.81,3.81-3.81s3.81,1.71,3.81,3.81v45.71c0,2.1-1.7,3.81-3.81,3.81h0Z"/>
        </g>
        <path class="st0" d="M326.08,228.75h-30.48c-2.1,0-3.81-1.71-3.81-3.81s1.71-3.81,3.81-3.81h30.48c2.1,0,3.81,1.71,3.81,3.81s-1.71,3.81-3.81,3.81Z"/>
      </g>
      <g id="path48522">
        <path class="st0" d="M279.35,261.13h-120.89c-2.1,0-3.81-1.71-3.81-3.81s1.71-3.81,3.81-3.81h120.89c2.1,0,3.81,1.71,3.81,3.81s-1.71,3.81-3.81,3.81Z"/>
      </g>
      <g id="path49912">
        <path class="st0" d="M257.51,157.89c-2.1,0-3.81-1.7-3.81-3.81h0c0-8.21-6.66-14.85-14.86-14.86-2.1,0-3.81-1.71-3.81-3.81s1.71-3.81,3.81-3.81c12.41.01,22.46,10.07,22.48,22.48,0,2.1-1.7,3.81-3.81,3.81h0Z"/>
      </g>
    </g>
  </g>
</svg>