<?xml version="1.0" encoding="UTF-8"?>
<svg id="icons" xmlns="http://www.w3.org/2000/svg" version="1.1" viewBox="0 0 489.6 483.08">
  <!-- Generator: Adobe Illustrator 30.1.0, SVG Export Plug-In . SVG Version: 2.1.1 Build 136)  -->
  <defs>
    <style>
      .st0 {
        fill: #2463eb;
      }

      .st1 {
        fill: #e9effd;
      }
    </style>
  </defs>
  <rect class="st1" x="6.87" y="9.16" width="474.61" height="465.84" rx="65.23" ry="65.23"/>
  <path class="st0" d="M234.95,152.02c0,2.07-1.68,3.75-3.75,3.75h-55c-6.2,0-11.25,5.05-11.25,11.25v36.1l18.6-18.6c1.46-1.46,3.84-1.46,5.3,0s1.46,3.84,0,5.3l-21.46,21.46c-1.65,1.66-3.85,2.56-6.19,2.56s-4.53-.91-6.19-2.56l-21.46-21.46c-1.46-1.46-1.46-3.84,0-5.3s3.84-1.46,5.3,0l18.6,18.6v-36.1c0-10.34,8.41-18.75,18.75-18.75h55c2.07,0,3.75,1.68,3.75,3.75ZM224.95,297.01c0,36.97-34.94,70.22-49.96,82.8-2.54,2.12-5.66,3.19-8.77,3.19s-6.27-1.07-8.83-3.22c-19.56-16.39-63.21-59.27-46.06-103.42,9.01-23.19,30.51-38.1,54.88-38.1h.46c32.14.25,58.28,26.61,58.28,58.74ZM217.45,297.01c0-28.03-22.81-51.02-50.84-51.25h-.41c-21.25,0-40.02,13.04-47.89,33.31-15.39,39.62,25.56,79.6,43.89,94.95h0c2.32,1.94,5.68,1.96,7.97.03,14.21-11.9,47.27-43.24,47.27-77.05ZM194.95,297.01c0,15.85-12.9,28.75-28.75,28.75s-28.75-12.89-28.75-28.75,12.9-28.75,28.75-28.75,28.75,12.89,28.75,28.75ZM187.45,297.01c0-11.72-9.53-21.25-21.25-21.25s-21.25,9.53-21.25,21.25,9.53,21.25,21.25,21.25,21.25-9.53,21.25-21.25ZM394.94,127.02v119.99c0,4.82-3.93,8.75-8.75,8.75h-119.99c-4.82,0-8.75-3.93-8.75-8.75v-119.99c0-4.82,3.93-8.75,8.75-8.75h6.25v-6.25c0-7.58,6.17-13.75,13.75-13.75h79.99c7.58,0,13.75,6.17,13.75,13.75v6.25h6.25c4.82,0,8.75,3.93,8.75,8.75ZM279.95,118.27h92.49v-6.25c0-3.45-2.8-6.25-6.25-6.25h-79.99c-3.45,0-6.25,2.8-6.25,6.25v6.25ZM284.95,188.27h82.49v-12.5h-82.49v12.5ZM367.44,155.77h-82.49v12.5h82.49v-12.5ZM367.44,248.26v-52.5h-82.49v52.5h82.49ZM387.44,127.02c0-.69-.56-1.25-1.25-1.25h-119.99c-.69,0-1.25.56-1.25,1.25v119.99c0,.69.56,1.25,1.25,1.25h11.25v-96.24c0-2.07,1.68-3.75,3.75-3.75h89.99c2.07,0,3.75,1.68,3.75,3.75v96.24h11.25c.69,0,1.25-.56,1.25-1.25v-119.99ZM347.38,277.74c-3.3-3.31-9.07-3.31-12.37,0l-21.46,21.46c-1.46,1.46-1.46,3.84,0,5.3,1.46,1.46,3.83,1.47,5.3,0l18.6-18.59v31.1c0,6.2-5.05,11.25-11.25,11.25h-81.94c-2.07,0-3.75,1.68-3.75,3.75s1.68,3.75,3.75,3.75h81.94c10.34,0,18.75-8.41,18.75-18.75v-31.1l18.6,18.59c.73.73,1.69,1.1,2.65,1.1s1.92-.37,2.65-1.1c1.46-1.46,1.46-3.84,0-5.3l-21.46-21.46Z"/>
</svg>