<?xml version="1.0" encoding="UTF-8"?>
<svg id="icons" xmlns="http://www.w3.org/2000/svg" version="1.1" viewBox="0 0 489.6 483.08">
  <!-- Generator: Adobe Illustrator 30.1.0, SVG Export Plug-In . SVG Version: 2.1.1 Build 136)  -->
  <defs>
    <style>
      .st0 {
        fill: #2463eb;
      }

      .st1 {
        fill: #e9effd;
      }
    </style>
  </defs>
  <rect class="st1" x="6.87" y="9.16" width="474.61" height="465.84" rx="65.23" ry="65.23"/>
  <g>
    <path class="st0" d="M170.47,197.86v49.13h29.48v-49.13h-29.48ZM190.13,237.17h-9.83v-9.83h9.83v9.83ZM190.13,217.51h-9.83v-9.83h9.83v9.83Z"/>
    <path class="st0" d="M131.17,246.99h29.48v-49.13h-29.48v49.13ZM140.99,207.69h9.83v9.83h-9.83v-9.83ZM140.99,227.34h9.83v9.83h-9.83v-9.83Z"/>
    <rect class="st0" x="209.78" y="197.86" width="29.48" height="49.13"/>
    <rect class="st0" x="131.17" y="178.21" width="108.09" height="9.83"/>
    <rect class="st0" x="160.65" y="256.82" width="49.13" height="9.83"/>
    <polygon class="st0" points="219.61 276.47 150.82 276.47 150.82 256.82 131.17 256.82 131.17 305.95 239.26 305.95 239.26 256.82 219.61 256.82 219.61 276.47"/>
    <polygon class="st0" points="121.34 119.25 111.51 119.25 111.51 384.57 239.26 384.57 239.26 374.74 121.34 374.74 121.34 119.25"/>
    <path class="st0" d="M131.17,119.25v49.13h29.48v-49.13h-29.48ZM150.82,158.55h-9.83v-9.83h9.83v9.83ZM150.82,138.9h-9.83v-9.83h9.83v9.83Z"/>
    <polygon class="st0" points="219.61 335.43 150.82 335.43 150.82 315.78 131.17 315.78 131.17 364.91 239.26 364.91 239.26 315.78 219.61 315.78 219.61 335.43"/>
    <rect class="st0" x="160.65" y="315.78" width="49.13" height="9.83"/>
    <rect class="st0" x="101.69" y="99.59" width="284.97" height="9.83"/>
    <path class="st0" d="M170.47,119.25v49.13h29.48v-49.13h-29.48ZM190.13,158.55h-9.83v-9.83h9.83v9.83ZM190.13,138.9h-9.83v-9.83h9.83v9.83Z"/>
    <path class="st0" d="M209.78,168.38h29.48v-49.13h-29.48v49.13ZM219.61,129.07h9.83v9.83h-9.83v-9.83ZM219.61,148.73h9.83v9.83h-9.83v-9.83Z"/>
    <rect class="st0" x="347.36" y="217.51" width="9.83" height="68.79"/>
    <path class="st0" d="M249.09,384.57h127.75V119.25h-127.75v265.32ZM258.92,129.07h108.09v245.67h-108.09v-245.67Z"/>
    <polygon class="st0" points="268.74 364.91 357.18 364.91 357.18 296.13 337.53 296.13 337.53 207.69 357.18 207.69 357.18 138.9 268.74 138.9 268.74 364.91"/>
  </g>
</svg>