<?xml version="1.0" encoding="UTF-8"?>
<svg id="icons" xmlns="http://www.w3.org/2000/svg" version="1.1" viewBox="0 0 489.6 483.08">
  <!-- Generator: Adobe Illustrator 30.1.0, SVG Export Plug-In . SVG Version: 2.1.1 Build 136)  -->
  <defs>
    <style>
      .st0 {
        fill: #2463eb;
      }

      .st1 {
        fill: #e9effd;
      }
    </style>
  </defs>
  <rect class="st1" x="6.87" y="9.16" width="474.61" height="465.84" rx="65.23" ry="65.23"/>
  <g id="Icons">
    <path class="st0" d="M359.69,207.65h-35.54c-1.84,0-3.33,1.49-3.33,3.33v8.89c.02,6.3,4.83,11.55,11.11,12.11v21.17c0,2.48-1.64,4.65-4.03,5.33l-3.67,1.05c1.84-9.46-4.34-18.61-13.8-20.45-1.14-.22-2.31-.33-3.47-.32-2.79,0-5.55.7-8,2.03l-5.8-7.24c-.79-.98-1.22-2.2-1.22-3.46v-30.88c.01-2.27,1.4-4.29,3.51-5.13l11-4.43c4.63-1.85,7.68-6.33,7.71-11.32v-10.22c0-4.98-3.03-9.46-7.65-11.32l-9.58-3.81c-3.66-1.49-6.57-4.4-8.07-8.06l-12.7-31.75c-1.85-4.63-6.33-7.68-11.32-7.71h-41.32c-4.98.03-9.46,3.07-11.31,7.69l-12.7,31.75c-1.49,3.66-4.39,6.57-8.05,8.07l-9.62,3.83c-4.61,1.86-7.63,6.33-7.63,11.3v10.22c.02,4.98,3.06,9.45,7.68,11.31l11.04,4.45c2.1.84,3.48,2.86,3.49,5.12v30.88c0,1.26-.43,2.49-1.23,3.47l-5.8,7.24c-2.46-1.34-5.21-2.04-8.01-2.05-9.63-.07-17.5,7.68-17.58,17.31,0,1.16.1,2.32.32,3.46l-3.69-1.05c-2.38-.68-4.01-2.85-4.01-5.32v-21.17c6.27-.56,11.09-5.81,11.11-12.11v-8.89c0-1.84-1.49-3.33-3.33-3.33h-35.54c-1.84,0-3.33,1.49-3.33,3.33v8.89c.02,6.3,4.83,11.55,11.11,12.11v22.99c0,12.17,8.6,22.65,20.53,25.04l17.76,3.58c6.84,12.13,19.71,19.62,33.64,19.59h23.59v33.32h-45.54c-11.65.01-21.09,9.45-21.1,21.1v8.89c0,6.75,5.47,12.22,12.22,12.22s12.22-5.47,12.22-12.22v-5.55h42.21v5.55c0,6.75,5.47,12.22,12.22,12.22s12.22-5.47,12.22-12.22v-5.55h42.21v5.55c0,6.75,5.47,12.22,12.22,12.22s12.22-5.47,12.22-12.22v-8.89c-.01-11.65-9.45-21.09-21.1-21.1h-45.54v-33.32h23.59c13.94.06,26.82-7.44,33.64-19.59l17.74-3.58c11.94-2.38,20.55-12.86,20.55-25.04v-22.99c6.27-.56,11.09-5.81,11.11-12.11v-8.89c0-1.84-1.49-3.33-3.33-3.33ZM137.55,225.42c-3.07,0-5.55-2.49-5.55-5.55v-5.55h28.88v5.55c0,3.07-2.49,5.55-5.55,5.55h-17.77ZM158.27,273.46c-8.82-1.76-15.17-9.51-15.17-18.5v-22.88h6.66v21.06c0,5.45,3.62,10.24,8.86,11.74l8.3,2.36,3.19,7.43.66,1.31-12.49-2.52ZM215.34,296.5h-6.97c-12.21.05-23.38-6.85-28.79-17.79l-3.43-6.84-3.73-8.71h0s-1.06-2.49-1.06-2.49c-2.38-5.56.19-11.99,5.75-14.38,1.36-.58,2.82-.88,4.29-.89,2.46.02,4.84.9,6.72,2.49,1.63,1.27,2.9,2.94,3.7,4.84l4.69,10.94c2.64,6.15,8.05,10.68,14.57,12.2l1.55,1.54c5.03,5.05,6.13,12.81,2.71,19.07ZM183.09,366.48c0,3.07-2.49,5.55-5.55,5.55s-5.55-2.49-5.55-5.55v-5.55h11.11v5.55ZM249.73,366.48c0,3.07-2.49,5.55-5.55,5.55s-5.55-2.49-5.55-5.55v-5.55h11.11v5.55ZM316.37,366.48c0,3.07-2.49,5.55-5.55,5.55s-5.55-2.49-5.55-5.55v-5.55h11.11v5.55ZM301.93,343.15c6.69,0,12.5,4.6,14.05,11.11h-143.62c1.55-6.51,7.36-11.1,14.05-11.11h115.51ZM238.62,336.49v-33.32h11.11v33.32h-11.11ZM265.76,296.5h-43.16c2.39-6.65,1.56-14.04-2.27-19.99h47.7c-3.83,5.95-4.66,13.34-2.27,19.99ZM263.06,209.87v11.11h-37.76v-11.11h37.76ZM225.29,203.21v-10c0-10.43,8.45-18.88,18.88-18.88s18.88,8.45,18.88,18.88v10h-37.76ZM263.06,227.64v42.21h-37.76v-42.21h37.76ZM244.17,167.66c-14.1.02-25.53,11.44-25.55,25.55v76.64h-2.71c-5.78,0-11.01-3.45-13.28-8.77l-4.72-11c-.39-.87-.83-1.72-1.34-2.53-.14-.23-.29-.44-.44-.65-.38-.57-.8-1.13-1.24-1.66-.09-.1-.16-.23-.25-.33l5.74-7.18c1.74-2.17,2.69-4.86,2.69-7.64v-30.88c-.02-4.98-3.06-9.45-7.68-11.31l-11.04-4.45c-2.1-.84-3.48-2.86-3.49-5.12v-10.22c0-2.25,1.37-4.28,3.45-5.12l9.62-3.83c5.34-2.18,9.57-6.42,11.74-11.76l12.71-31.78c.84-2.1,2.86-3.48,5.12-3.49h41.32c2.26.01,4.29,1.4,5.12,3.5l12.71,31.78c2.18,5.34,6.42,9.57,11.76,11.75l9.57,3.81c2.1.84,3.48,2.87,3.48,5.13v10.22c-.01,2.27-1.4,4.29-3.51,5.13l-11,4.43c-4.63,1.85-7.68,6.33-7.71,11.32v30.88c0,2.78.95,5.47,2.69,7.64l5.75,7.18c-.11.12-.19.27-.3.4-.41.49-.8,1.01-1.16,1.55-.16.24-.33.46-.48.71-.5.81-.95,1.65-1.33,2.51l-4.72,11c-2.27,5.32-7.5,8.78-13.28,8.78h-2.71v-76.64c-.02-14.1-11.44-25.53-25.55-25.55ZM315.93,263.15h0s-3.65,8.53-3.65,8.53l-3.31,6.68c-.15.23-.28.47-.4.71-5.48,10.73-16.53,17.47-28.58,17.42h-6.97c-3.42-6.25-2.32-14.01,2.71-19.06l1.55-1.55c6.52-1.52,11.93-6.05,14.57-12.21l4.69-10.94c.82-1.95,2.13-3.65,3.81-4.93,1.85-1.54,4.17-2.39,6.58-2.4,6.04,0,10.95,4.9,10.95,10.94,0,1.48-.3,2.95-.89,4.31l-1.06,2.49ZM345.25,254.96c0,9-6.36,16.74-15.19,18.5l-12.48,2.51h0s.74-1.49.74-1.49l3.11-7.25,8.28-2.36c5.25-1.49,8.87-6.28,8.88-11.74v-21.06h6.66v22.88ZM356.35,219.87c0,3.07-2.49,5.55-5.55,5.55h-17.77c-3.07,0-5.55-2.49-5.55-5.55v-5.55h28.88v5.55ZM257.5,123.24h-26.66c-6.75,0-12.22,5.47-12.22,12.22s5.47,12.22,12.22,12.22h26.66c6.75,0,12.22-5.47,12.22-12.22s-5.47-12.22-12.22-12.22ZM257.5,141.01h-26.66c-3.07,0-5.55-2.49-5.55-5.55s2.49-5.55,5.55-5.55h26.66c3.07,0,5.55,2.49,5.55,5.55s-2.49,5.55-5.55,5.55Z"/>
  </g>
</svg>