<?xml version="1.0" encoding="UTF-8"?>
<svg id="icons" xmlns="http://www.w3.org/2000/svg" version="1.1" viewBox="0 0 489.6 483.08">
  <!-- Generator: Adobe Illustrator 30.1.0, SVG Export Plug-In . SVG Version: 2.1.1 Build 136)  -->
  <defs>
    <style>
      .st0 {
        fill: #2463eb;
      }

      .st1 {
        fill: #e9effd;
      }
    </style>
  </defs>
  <rect class="st1" x="6.87" y="9.16" width="474.61" height="465.84" rx="65.23" ry="65.23"/>
  <g>
    <path class="st0" d="M244.18,125.66c-87.11,0-157.98,70.87-157.98,157.97-1.99,92.33,86.71,72.97,157.98,73.42,66.13-1.12,160.13,20.76,157.97-73.41,0-87.11-70.86-157.98-157.97-157.98ZM376.33,331.28c-18.43,17.9-54.61,16.87-96.53,15.66-22.73-.84-48.52-.84-71.26,0-41.92,1.2-78.1,2.24-96.53-15.66-10.12-9.83-15.04-25.42-15.04-47.64,0-81.16,66.03-147.19,147.2-147.19s147.2,66.03,147.2,147.19c0,22.23-4.92,37.81-15.04,47.64h0Z"/>
    <path class="st0" d="M244.18,246.17c-27.61,0-57.72-2.27-71.67-19.12l-8.3,6.88c16.76,20.23,48.34,23.03,79.98,23.03s63.21-2.79,79.98-23.03l-8.3-6.88c-13.96,16.85-44.06,19.12-71.67,19.12h0Z"/>
  </g>
</svg>