<?xml version="1.0" encoding="UTF-8"?>
<svg id="icons" xmlns="http://www.w3.org/2000/svg" version="1.1" viewBox="0 0 489.6 483.08">
  <!-- Generator: Adobe Illustrator 30.1.0, SVG Export Plug-In . SVG Version: 2.1.1 Build 136)  -->
  <defs>
    <style>
      .st0 {
        fill: #2463eb;
      }

      .st1 {
        fill: #e9effd;
      }
    </style>
  </defs>
  <rect class="st1" x="6.87" y="9.16" width="474.61" height="465.84" rx="65.23" ry="65.23"/>
  <g id="_x33_1_Meeting_room">
    <g>
      <path class="st0" d="M196.54,249.25c-1.09,0-1.98-.89-1.98-1.98v-5.25c0-1.09.89-1.98,1.98-1.98s1.98.89,1.98,1.98v5.25c0,1.09-.89,1.98-1.98,1.98Z"/>
      <path class="st0" d="M196.54,274.9c-1.09,0-1.98-.89-1.98-1.98v-15.61c0-1.09.89-1.98,1.98-1.98s1.98.89,1.98,1.98v15.61c0,1.09-.89,1.98-1.98,1.98Z"/>
      <g>
        <path class="st0" d="M278.8,331.29h-1.01l.41-2.13c1.5-7.88-4.54-15.17-12.56-15.17h-55.37c-8,0-14.05,7.29-12.56,15.17l.41,2.13h-1c-1.15,0-2.23.5-2.97,1.38-.74.88-1.05,2.03-.85,3.16h0s6.31,35.92,6.31,35.92c.33,1.86,1.93,3.2,3.82,3.2h2.97l.85,4.44c-1.38,1.92-1.66,4-1,6.24.88,3.01,3.32,5.58,6.53,6.89,8,3.29,16.58,4.93,25.15,4.93,8.75,0,17.5-1.71,25.64-5.13,6.2-2.62,7.93-9,5.1-12.92l.84-4.46c.95-.2,6.04,1.09,6.79-3.21l6.31-35.92c.2-1.13-.11-2.28-.85-3.16-.74-.88-1.82-1.38-2.97-1.38ZM201.6,328.42c-1.04-5.45,3.15-10.48,8.67-10.48h55.37c5.56,0,9.7,5.05,8.67,10.48l-.55,2.87h-4.76c-2.14,0-3.87,1.74-3.87,3.87v35.92c0,.81.25,1.56.68,2.18l-.64,3.42c-2.52-1.07-5.63-1.11-8.49.05-12.02,4.96-25.78,4.91-37.77-.13-2.7-1.13-5.67-1.06-8.15.01l-.64-3.35c.43-.62.68-1.38.68-2.19v-35.92c0-2.14-1.74-3.87-3.87-3.87h-4.77l-.55-2.87ZM197.22,335.24l9.62-.08.08,35.83s-.02,0-.03.01l-3.38.07-6.29-35.83ZM262.04,388.68c-15.15,6.37-32.56,6.43-47.77.18-2.07-.85-3.69-2.51-4.23-4.34-1.1-3.76,3.73-5.78,7.33-4.27,12.95,5.44,27.82,5.49,40.79.14,2.55-1.03,5.31-.7,6.9.86,1.95,1.83.96,5.75-3.03,7.43ZM272.49,371l-3.38.08s-.01-.02-.02-.02l-.08-35.81,6.21-.02c.06,0,.13.02.19.02.04,0,.07-.02.11-.02h3.2s-6.22,35.78-6.22,35.78Z"/>
        <path class="st0" d="M350.81,288.38c1.44,1,3.18,1.16,4.85.68,2.34-.69,4.35-2.58,5.36-5.06,4.89-11.9,4.84-25.53-.15-37.4-2.02-4.78-6.94-6.13-10.04-4.07l-2.57-.49c-.14-.56.82-4.4-2.78-5.03l-26.15-4.6h0c-.97-.17-1.98.1-2.74.74-.76.64-1.2,1.58-1.2,2.57v.08l-.91-.17c-6.08-1.15-11.68,3.51-11.68,9.66v40.32c0,6.18,5.61,10.82,11.68,9.68l.91-.17v.08c0,.99.44,1.93,1.2,2.57.61.51,1.37.79,2.16.79.19,0,.39-.02.58-.05h0l26.15-4.6c1.61-.28,2.78-1.67,2.78-3.31v-1.74l2.54-.48ZM357.23,248.13c4.58,10.9,4.63,23.43.13,34.37-.66,1.63-1.89,2.5-2.81,2.77-2.27.66-3.39-2.41-2.46-4.61,4.02-9.56,4.05-20.54.11-30.11-.66-1.63-.46-3.45.52-4.45,1.32-1.4,3.66,0,4.52,2.04h0ZM319.35,236.43l24.96,4.39v1.44h-24.96v-5.83ZM318.76,284.7c-1.85,0-3.36,1.51-3.36,3.36v3.03l-1.65.31c-3.65.69-6.99-2.11-6.99-5.79v-40.32c0-3.67,3.34-6.46,6.99-5.78l1.65.31v3.02c0,1.85,1.51,3.36,3.36,3.36h26.15c.61,0,1.18-.18,1.68-.47l1.67.32c-.6,1.84-.53,3.98.27,5.98,3.55,8.62,3.52,18.49-.09,27.08-.73,1.73-.89,3.68-.21,5.72l-1.66.31c-.49-.28-1.05-.46-1.66-.46h-26.15ZM344.31,290.1l-24.96,4.39v-5.83h24.96v1.44Z"/>
        <path class="st0" d="M375.17,262.31s-.04,0-.06,0c-1.04.02-1.9-.77-1.98-1.81-.18-2.19-.49-4.4-.95-6.55-.22-1.06.47-2.1,1.55-2.32,1.06-.24,2.1.46,2.32,1.53.48,2.3.82,4.68,1.02,7.07.09,1.11-.79,2.06-1.9,2.08h0Z"/>
        <path class="st0" d="M374.7,274.32c-1.08-.19-2.1.52-2.3,1.59-.71,3.91-1.83,7.74-3.33,11.41-2.42,5.92-7.85,10.1-13.85,10.64-1.09.1-1.89,1.06-1.79,2.15.09,1.03.96,1.8,1.97,1.8.06,0,.12,0,.18,0,7.45-.67,14.18-5.81,17.15-13.08,1.61-3.91,2.81-8.02,3.57-12.2.19-1.08-.52-2.1-1.59-2.3h0Z"/>
        <path class="st0" d="M161.44,235.63l-.92.17v-.08c0-.99-.44-1.93-1.2-2.57-.76-.64-1.76-.91-2.74-.74h0l-26.15,4.6c-1.61.28-2.78,1.67-2.78,3.31v1.72l-2.57.48c-3.45-2.38-8.39,0-10.19,4.4-4.89,11.9-4.84,25.53.15,37.4,1.75,4.15,6.47,6.43,10.03,4.07l2.58.48c.14.56-.82,4.41,2.78,5.04l26.15,4.6h0c2.06.36,3.94-1.22,3.94-3.31v-.08l.92.17c6.06,1.15,11.68-3.51,11.68-9.68v-40.32c0-6.16-5.62-10.81-11.68-9.66h0ZM131.61,240.82l24.96-4.39v5.83h-24.96v-1.44ZM118.69,282.78c-4.58-10.9-4.63-23.43-.13-34.37,1.23-3.01,4.66-4.19,5.49-.82.22.9.14,1.82-.21,2.66-4.02,9.56-4.05,20.54-.11,30.11.66,1.63.46,3.45-.52,4.45-1.32,1.4-3.67-.03-4.52-2.04h0ZM156.57,294.48l-24.96-4.39v-1.44h24.96v5.83ZM169.16,285.61c0,3.69-3.36,6.48-6.99,5.79l-1.65-.31v-3.03c0-1.85-1.51-3.36-3.36-3.36h-26.15c-.61,0-1.17.17-1.66.46l-1.69-.32c.59-1.84.53-3.98-.27-5.97-3.55-8.62-3.52-18.49.09-27.08.68-1.63.82-3.4.41-5.13-.05-.21-.14-.4-.2-.61l1.65-.31c.5.29,1.07.47,1.68.47h26.15c1.85,0,3.36-1.51,3.36-3.36v-3.02l1.65-.31c3.62-.69,6.99,2.1,6.99,5.78v40.32h0Z"/>
        <path class="st0" d="M302.81,163.68v40.33c0,6.18,5.63,10.8,11.68,9.66l.91-.17v.08c0,2.09,1.89,3.67,3.94,3.31h0l26.15-4.6c3.55-.63,2.65-4.54,2.77-5.04l2.55-.48c3.47,2.42,8.43-.03,10.21-4.38,4.89-11.9,4.84-25.53-.15-37.4-2.01-4.77-6.92-6.14-10.04-4.07l-2.57-.49v-1.73c0-1.63-1.17-3.02-2.78-3.31l-26.15-4.59c-.98-.17-1.98.1-2.74.73-.76.64-1.2,1.58-1.2,2.57v.08l-.91-.17c-6.06-1.14-11.68,3.49-11.68,9.66h0ZM344.31,208.49l-24.96,4.39v-5.83h24.96v1.44ZM357.23,166.52c4.58,10.9,4.63,23.43.13,34.37-1.22,2.98-4.65,4.2-5.49.82-.22-.9-.14-1.82.21-2.66,4.02-9.56,4.05-20.54.11-30.11-.66-1.63-.46-3.45.52-4.45,1.34-1.42,3.71.11,4.52,2.04ZM319.35,154.82l24.96,4.39v1.44h-24.96v-5.83ZM318.76,164.6h26.15c.61,0,1.18-.18,1.68-.47l1.67.32c-.6,1.84-.54,3.99.27,5.98,3.55,8.62,3.52,18.49-.09,27.08-.73,1.73-.89,3.68-.21,5.72l-1.66.31c-.49-.28-1.05-.46-1.66-.46h-26.15c-1.85,0-3.36,1.51-3.36,3.36v3.03l-1.65.31c-3.64.69-6.99-2.09-6.99-5.78v-40.33c0-3.67,3.34-6.46,6.99-5.78l1.65.31v3.03c0,1.85,1.51,3.36,3.36,3.36h0Z"/>
        <path class="st0" d="M161.44,154.02l-.92.17v-.08c0-1-.44-1.93-1.2-2.57-.76-.64-1.76-.91-2.74-.73l-26.15,4.59c-1.61.28-2.78,1.67-2.78,3.31v1.72l-2.57.48c-3.45-2.38-8.39,0-10.19,4.4-4.89,11.9-4.84,25.53.15,37.4,1.99,4.72,6.87,6.16,10.03,4.07l2.58.48v1.73c0,1.63,1.17,3.02,2.78,3.31l26.15,4.59h0c2.06.36,3.94-1.23,3.94-3.31v-.08l.92.17c.61.12,1.23.17,1.84.17,5.38,0,9.84-4.37,9.84-9.83v-40.33c0-6.16-5.62-10.81-11.68-9.66h0ZM131.61,159.2l24.96-4.39v5.83h-24.96v-1.44ZM118.69,201.17c-4.58-10.9-4.63-23.43-.13-34.37,1.23-3.02,4.66-4.18,5.49-.82.22.89.14,1.82-.21,2.66-4.02,9.56-4.05,20.54-.11,30.11.66,1.63.46,3.45-.52,4.45-1.32,1.4-3.67-.03-4.52-2.04ZM156.57,212.87l-24.96-4.39v-1.44h24.96v5.83ZM169.16,204.01c0,3.69-3.38,6.46-6.99,5.78l-1.65-.31v-3.03c0-1.85-1.51-3.36-3.36-3.36h-26.15c-.61,0-1.17.17-1.66.46l-1.69-.32c.59-1.84.53-3.98-.27-5.97-3.55-8.62-3.52-18.49.09-27.08.68-1.63.82-3.4.41-5.13-.05-.21-.14-.4-.21-.61l1.65-.31c.5.29,1.07.47,1.68.47h26.15c1.85,0,3.36-1.51,3.36-3.36v-3.03l1.65-.31c3.63-.69,6.99,2.1,6.99,5.78v40.33h0Z"/>
        <path class="st0" d="M276.83,144.05h-77.74c-9.47,0-17.18,7.71-17.18,17.18v126.84c0,9.47,7.71,17.18,17.18,17.18h77.74c9.47,0,17.18-7.71,17.18-17.18v-126.84c0-9.47-7.71-17.18-17.18-17.18ZM290.06,288.07c0,7.29-5.93,13.23-13.23,13.23h-77.74c-7.29,0-13.23-5.93-13.23-13.23v-126.84c0-7.29,5.93-13.23,13.23-13.23h77.74c7.29,0,13.23,5.93,13.23,13.23v126.84h0Z"/>
        <path class="st0" d="M152.25,114.28c1.09,0,1.98-.89,1.98-1.99,0-.16-.21-5.24,0-7.56.1-1.09-.71-2.05-1.79-2.15-1.1-.1-2.05.71-2.14,1.79-.1,1.13-.16,6.27,0,8.03.05,1.05.92,1.87,1.97,1.87Z"/>
        <path class="st0" d="M156.81,96.3c.53,0,1.07-.21,1.46-.64,2.92-3.18,7.08-5.01,11.4-5.01h12.5c1.09,0,1.98-.89,1.98-1.98s-.89-1.98-1.98-1.98h-12.5c-5.43,0-10.65,2.29-14.32,6.29-.74.8-.68,2.06.12,2.79.38.35.86.52,1.34.52h0Z"/>
        <path class="st0" d="M162.85,106.17v4.55c0,3.76,3.06,6.81,6.81,6.81h136.6c3.76,0,6.81-3.06,6.81-6.81v-4.55c0-3.76-3.06-6.81-6.81-6.81h-136.6c-3.76,0-6.81,3.06-6.81,6.81ZM309.12,106.17v4.55c0,1.58-1.28,2.86-2.86,2.86h-136.6c-1.58,0-2.86-1.28-2.86-2.86v-4.55c0-1.58,1.28-2.86,2.86-2.86h136.6c1.58,0,2.86,1.28,2.86,2.86Z"/>
      </g>
    </g>
  </g>
</svg>