<?xml version="1.0" encoding="UTF-8"?>
<svg id="icons" xmlns="http://www.w3.org/2000/svg" version="1.1" viewBox="0 0 489.6 483.08">
  <!-- Generator: Adobe Illustrator 30.1.0, SVG Export Plug-In . SVG Version: 2.1.1 Build 136)  -->
  <defs>
    <style>
      .st0 {
        fill: #2463eb;
      }

      .st1 {
        fill: #e9effd;
      }
    </style>
  </defs>
  <rect class="st1" x="6.87" y="9.16" width="474.61" height="465.84" rx="65.23" ry="65.23"/>
  <g>
    <path class="st0" d="M331.27,299.46c-.2-3.12-.87-6.15-1.95-9.02.02-.16.02-.32.02-.48v-45.97c0-9.41-7.66-17.07-17.07-17.07-3.11,0-6.02.84-8.54,2.3l-6.28-88.57c-.09-19.54-16.02-35.4-35.58-35.4h-35.41c-19.56,0-35.49,15.87-35.58,35.4l-6.28,88.57c-2.51-1.46-5.43-2.3-8.54-2.3-9.41,0-17.07,7.66-17.07,17.07v45.97c0,.16,0,.32.02.48-1.08,2.87-1.75,5.9-1.95,9.02-.04.26-.07.53-.07.8v1.26c0,.27.02.54.07.8.5,7.72,3.79,14.9,9.36,20.35,5.89,5.76,13.67,8.94,21.91,8.94h13.47v37.76h-11.11c-2.64,0-4.78,2.14-4.78,4.78s2.14,4.78,4.78,4.78h106.95c2.64,0,4.78-2.14,4.78-4.78s-2.14-4.78-4.78-4.78h-11.11v-37.76h13.47c8.24,0,16.02-3.17,21.91-8.94,5.56-5.45,8.86-12.63,9.36-20.35.04-.26.07-.53.07-.8v-1.26c0-.27-.02-.54-.07-.8ZM312.28,236.48c4.14,0,7.5,3.36,7.5,7.5v33.22c-5.58-4.55-12.5-7.03-19.78-7.03h-6.75c7.08-6.51,11.53-15.84,11.53-26.19,0-4.14,3.36-7.5,7.5-7.5ZM200.45,141.16c0-.11.01-.23.01-.34,0-14.34,11.67-26.01,26.01-26.01h35.41c14.34,0,26.01,11.67,26.01,26.01,0,.11,0,.23.01.34l7.31,102.99c-.09,14.27-11.72,25.85-26.01,25.85h-50.04c-14.29,0-25.92-11.58-26.01-25.85l7.3-102.99ZM176.07,236.48c4.14,0,7.5,3.36,7.5,7.5,0,10.35,4.45,19.68,11.53,26.19h-6.75c-7.28,0-14.2,2.48-19.78,7.03v-33.22c0-4.14,3.36-7.5,7.5-7.5ZM276.97,369.35h-65.58v-37.76h65.58v37.76ZM300,322.02h-111.65c-11.69,0-21.43-9.47-21.76-21.14.33-11.67,10.07-21.14,21.76-21.14h111.65c11.69,0,21.43,9.47,21.76,21.14-.33,11.67-10.07,21.14-21.76,21.14Z"/>
    <path class="st0" d="M231.5,176.27c.93.93,2.16,1.4,3.38,1.4s2.45-.47,3.38-1.4l3.81-3.81c.27-.27.49-.56.69-.87.46.07.93.11,1.41.11s.95-.05,1.41-.11c.19.31.42.6.69.87l3.81,3.81c.93.93,2.16,1.4,3.38,1.4s2.45-.47,3.38-1.4c1.87-1.87,1.87-4.9,0-6.77l-3.71-3.71c.51-1.19.8-2.5.8-3.87,0-1.5-.35-2.92-.96-4.2.02-.02.04-.03.05-.05l3.81-3.81c1.87-1.87,1.87-4.9,0-6.77-1.87-1.87-4.9-1.87-6.77,0l-3.81,3.81c-.39.39-.7.84-.93,1.31-.39-.05-.77-.08-1.17-.08s-.79.03-1.17.08c-.23-.47-.53-.92-.93-1.31l-3.81-3.81c-1.87-1.87-4.9-1.87-6.77,0-1.87,1.87-1.87,4.9,0,6.77l3.81,3.81s.03.03.05.05c-.61,1.27-.96,2.69-.96,4.2,0,1.38.29,2.68.8,3.87l-3.71,3.71c-1.87,1.87-1.87,4.9,0,6.77Z"/>
    <path class="st0" d="M231.5,238.42c.93.93,2.16,1.4,3.38,1.4s2.45-.47,3.38-1.4l3.81-3.81c.27-.27.5-.57.69-.88.46.07.93.11,1.41.11s.95-.05,1.41-.11c.19.31.42.61.69.88l3.81,3.81c.93.93,2.16,1.4,3.38,1.4s2.45-.47,3.38-1.4c1.87-1.87,1.87-4.9,0-6.77l-3.71-3.71c.51-1.19.8-2.5.8-3.87,0-1.5-.35-2.92-.96-4.2.02-.02.03-.03.05-.05l3.81-3.81c1.87-1.87,1.87-4.9,0-6.77-1.87-1.87-4.9-1.87-6.77,0l-3.81,3.81c-.39.39-.7.84-.93,1.32-.39-.05-.77-.08-1.17-.08s-.79.03-1.17.08c-.23-.47-.53-.92-.93-1.32l-3.81-3.81c-1.87-1.87-4.9-1.87-6.77,0-1.87,1.87-1.87,4.9,0,6.77l3.81,3.81s.03.03.05.05c-.61,1.27-.96,2.69-.96,4.2,0,1.38.29,2.68.8,3.87l-3.71,3.71c-1.87,1.87-1.87,4.9,0,6.77Z"/>
  </g>
</svg>